<mxfile modified="2020-03-08T02:46:43.101Z" host="www.draw.io" agent="Mozilla/5.0 (Windows NT 10.0; Win64; x64) AppleWebKit/537.36 (KHTML, like Gecko) Chrome/80.0.3987.132 Safari/537.36" etag="F2Yaehkt5gYUe-tVhVNr" version="12.8.1" type="github">
  <diagram id="ZTkrNZvC3sOmQlXTjufh" name="Page-1">
    <mxGraphModel dx="1019" dy="519" grid="1" gridSize="10" guides="1" tooltips="1" connect="1" arrows="1" fold="1" page="1" pageScale="1" pageWidth="827" pageHeight="1169" math="0" shadow="0">
      <root>
        <mxCell id="0" />
        <mxCell id="1" parent="0" />
        <mxCell id="54kXhM8Bq98e1mjiQmao-63" value="" style="shape=cube;whiteSpace=wrap;html=1;boundedLbl=1;backgroundOutline=1;darkOpacity=0.05;darkOpacity2=0.1;fillColor=#dae8fc;strokeColor=#6c8ebf;size=28;direction=south;fontSize=18;fontStyle=0" parent="1" vertex="1">
          <mxGeometry x="270" y="313" width="37" height="90" as="geometry" />
        </mxCell>
        <mxCell id="54kXhM8Bq98e1mjiQmao-64" value="" style="shape=cube;whiteSpace=wrap;html=1;boundedLbl=1;backgroundOutline=1;darkOpacity=0.05;darkOpacity2=0.1;fillColor=#fff2cc;strokeColor=#d6b656;size=41;direction=south;fontSize=18;fontStyle=0" parent="1" vertex="1">
          <mxGeometry x="205" y="290" width="50" height="150" as="geometry" />
        </mxCell>
        <mxCell id="54kXhM8Bq98e1mjiQmao-65" value="" style="shape=cube;whiteSpace=wrap;html=1;boundedLbl=1;backgroundOutline=1;darkOpacity=0.05;darkOpacity2=0.1;fillColor=#fff2cc;strokeColor=#d6b656;size=25;direction=south;fontSize=18;fontStyle=0" parent="1" vertex="1">
          <mxGeometry x="320" y="313" width="60" height="90" as="geometry" />
        </mxCell>
        <mxCell id="54kXhM8Bq98e1mjiQmao-66" value="" style="shape=cube;whiteSpace=wrap;html=1;boundedLbl=1;backgroundOutline=1;darkOpacity=0.05;darkOpacity2=0.1;fillColor=#dae8fc;strokeColor=#6c8ebf;size=10;direction=south;fontSize=18;fontStyle=0" parent="1" vertex="1">
          <mxGeometry x="394" y="329" width="40" height="50" as="geometry" />
        </mxCell>
        <mxCell id="54kXhM8Bq98e1mjiQmao-67" value="" style="shape=cube;whiteSpace=wrap;html=1;boundedLbl=1;backgroundOutline=1;darkOpacity=0.05;darkOpacity2=0.1;fillColor=#fff2cc;strokeColor=#d6b656;size=12;direction=south;fontSize=18;fontStyle=0" parent="1" vertex="1">
          <mxGeometry x="445" y="329" width="70" height="50" as="geometry" />
        </mxCell>
        <mxCell id="54kXhM8Bq98e1mjiQmao-68" value="" style="shape=cube;whiteSpace=wrap;html=1;boundedLbl=1;backgroundOutline=1;darkOpacity=0.05;darkOpacity2=0.1;fillColor=#dae8fc;strokeColor=#6c8ebf;size=4;direction=south;fontSize=18;fontStyle=0" parent="1" vertex="1">
          <mxGeometry x="528" y="341" width="70" height="20" as="geometry" />
        </mxCell>
        <mxCell id="54kXhM8Bq98e1mjiQmao-70" value="" style="shape=cube;whiteSpace=wrap;html=1;boundedLbl=1;backgroundOutline=1;darkOpacity=0.05;darkOpacity2=0.1;fillColor=#d5e8d4;strokeColor=#82b366;size=3;direction=south;fontSize=18;fontStyle=0" parent="1" vertex="1">
          <mxGeometry x="634" y="329" width="10" height="41" as="geometry" />
        </mxCell>
        <mxCell id="54kXhM8Bq98e1mjiQmao-90" value="" style="shape=cube;whiteSpace=wrap;html=1;boundedLbl=1;backgroundOutline=1;darkOpacity=0.05;darkOpacity2=0.1;fillColor=#f8cecc;strokeColor=#b85450;size=9;direction=south;fontSize=18;fontStyle=0" parent="1" vertex="1">
          <mxGeometry x="234" y="349" width="8" height="35" as="geometry" />
        </mxCell>
        <mxCell id="54kXhM8Bq98e1mjiQmao-91" value="" style="endArrow=none;html=1;exitX=0;exitY=0;exitDx=8;exitDy=8;exitPerimeter=0;fontSize=18;entryX=0.581;entryY=1.003;entryDx=0;entryDy=0;entryPerimeter=0;fontStyle=0" parent="1" source="54kXhM8Bq98e1mjiQmao-90" target="54kXhM8Bq98e1mjiQmao-63" edge="1">
          <mxGeometry width="50" height="50" relative="1" as="geometry">
            <mxPoint x="330" y="500" as="sourcePoint" />
            <mxPoint x="269" y="369" as="targetPoint" />
          </mxGeometry>
        </mxCell>
        <mxCell id="54kXhM8Bq98e1mjiQmao-92" value="" style="endArrow=none;html=1;exitX=0;exitY=0;exitDx=0;exitDy=0;exitPerimeter=0;entryX=0.576;entryY=1.014;entryDx=0;entryDy=0;entryPerimeter=0;fontSize=18;fontStyle=0" parent="1" source="54kXhM8Bq98e1mjiQmao-90" target="54kXhM8Bq98e1mjiQmao-63" edge="1">
          <mxGeometry width="50" height="50" relative="1" as="geometry">
            <mxPoint x="280" y="470" as="sourcePoint" />
            <mxPoint x="330" y="420" as="targetPoint" />
          </mxGeometry>
        </mxCell>
        <mxCell id="54kXhM8Bq98e1mjiQmao-94" value="" style="endArrow=none;html=1;entryX=0;entryY=0;entryDx=35;entryDy=8;entryPerimeter=0;fontSize=18;exitX=0.583;exitY=1.028;exitDx=0;exitDy=0;exitPerimeter=0;fontStyle=0" parent="1" source="54kXhM8Bq98e1mjiQmao-63" target="54kXhM8Bq98e1mjiQmao-90" edge="1">
          <mxGeometry width="50" height="50" relative="1" as="geometry">
            <mxPoint x="269" y="369" as="sourcePoint" />
            <mxPoint x="250" y="520" as="targetPoint" />
          </mxGeometry>
        </mxCell>
        <mxCell id="54kXhM8Bq98e1mjiQmao-95" value="" style="endArrow=none;html=1;entryX=0;entryY=0;entryDx=27;entryDy=0;entryPerimeter=0;exitX=0.579;exitY=1.005;exitDx=0;exitDy=0;exitPerimeter=0;fontSize=18;fontStyle=0" parent="1" source="54kXhM8Bq98e1mjiQmao-63" target="54kXhM8Bq98e1mjiQmao-90" edge="1">
          <mxGeometry width="50" height="50" relative="1" as="geometry">
            <mxPoint x="270" y="372" as="sourcePoint" />
            <mxPoint x="280" y="380" as="targetPoint" />
          </mxGeometry>
        </mxCell>
        <mxCell id="54kXhM8Bq98e1mjiQmao-96" value="" style="shape=cube;whiteSpace=wrap;html=1;boundedLbl=1;backgroundOutline=1;darkOpacity=0.05;darkOpacity2=0.1;fillColor=#f8cecc;strokeColor=#b85450;size=9;direction=south;fontSize=18;fontStyle=0" parent="1" vertex="1">
          <mxGeometry x="291" y="347" width="8" height="32" as="geometry" />
        </mxCell>
        <mxCell id="54kXhM8Bq98e1mjiQmao-97" value="" style="endArrow=none;html=1;exitX=0;exitY=0;exitDx=0;exitDy=0;exitPerimeter=0;entryX=0.534;entryY=0.993;entryDx=0;entryDy=0;entryPerimeter=0;fontSize=18;fontStyle=0" parent="1" source="54kXhM8Bq98e1mjiQmao-96" target="54kXhM8Bq98e1mjiQmao-65" edge="1">
          <mxGeometry width="50" height="50" relative="1" as="geometry">
            <mxPoint x="280" y="400" as="sourcePoint" />
            <mxPoint x="330" y="350" as="targetPoint" />
          </mxGeometry>
        </mxCell>
        <mxCell id="54kXhM8Bq98e1mjiQmao-98" value="" style="endArrow=none;html=1;exitX=0;exitY=0;exitDx=8;exitDy=8;exitPerimeter=0;entryX=0.532;entryY=1.004;entryDx=0;entryDy=0;entryPerimeter=0;fontSize=18;fontStyle=0" parent="1" source="54kXhM8Bq98e1mjiQmao-96" target="54kXhM8Bq98e1mjiQmao-65" edge="1">
          <mxGeometry width="50" height="50" relative="1" as="geometry">
            <mxPoint x="290" y="380" as="sourcePoint" />
            <mxPoint x="319" y="366" as="targetPoint" />
          </mxGeometry>
        </mxCell>
        <mxCell id="54kXhM8Bq98e1mjiQmao-99" value="" style="endArrow=none;html=1;exitX=0;exitY=0;exitDx=24;exitDy=0;exitPerimeter=0;entryX=0.535;entryY=0.99;entryDx=0;entryDy=0;entryPerimeter=0;fontSize=18;fontStyle=0" parent="1" source="54kXhM8Bq98e1mjiQmao-96" target="54kXhM8Bq98e1mjiQmao-65" edge="1">
          <mxGeometry width="50" height="50" relative="1" as="geometry">
            <mxPoint x="290" y="420" as="sourcePoint" />
            <mxPoint x="320" y="358" as="targetPoint" />
          </mxGeometry>
        </mxCell>
        <mxCell id="54kXhM8Bq98e1mjiQmao-100" value="" style="endArrow=none;html=1;exitX=0.981;exitY=0.985;exitDx=0;exitDy=0;exitPerimeter=0;entryX=0.538;entryY=0.994;entryDx=0;entryDy=0;entryPerimeter=0;fontSize=18;fontStyle=0" parent="1" source="54kXhM8Bq98e1mjiQmao-96" target="54kXhM8Bq98e1mjiQmao-65" edge="1">
          <mxGeometry width="50" height="50" relative="1" as="geometry">
            <mxPoint x="290" y="420" as="sourcePoint" />
            <mxPoint x="319" y="368" as="targetPoint" />
          </mxGeometry>
        </mxCell>
        <mxCell id="54kXhM8Bq98e1mjiQmao-101" value="" style="shape=cube;whiteSpace=wrap;html=1;boundedLbl=1;backgroundOutline=1;darkOpacity=0.05;darkOpacity2=0.1;fillColor=#f8cecc;strokeColor=#b85450;size=9;direction=south;fontSize=18;fontStyle=0" parent="1" vertex="1">
          <mxGeometry x="365" y="343" width="8" height="30" as="geometry" />
        </mxCell>
        <mxCell id="54kXhM8Bq98e1mjiQmao-102" value="" style="endArrow=none;html=1;exitX=0;exitY=0;exitDx=8;exitDy=8;exitPerimeter=0;entryX=0.548;entryY=1;entryDx=0;entryDy=0;entryPerimeter=0;fontSize=18;fontStyle=0" parent="1" source="54kXhM8Bq98e1mjiQmao-101" target="54kXhM8Bq98e1mjiQmao-66" edge="1">
          <mxGeometry width="50" height="50" relative="1" as="geometry">
            <mxPoint x="360" y="400" as="sourcePoint" />
            <mxPoint x="410" y="350" as="targetPoint" />
          </mxGeometry>
        </mxCell>
        <mxCell id="54kXhM8Bq98e1mjiQmao-103" value="" style="endArrow=none;html=1;exitX=0;exitY=0;exitDx=0;exitDy=0;exitPerimeter=0;entryX=0.549;entryY=1;entryDx=0;entryDy=0;entryPerimeter=0;fontSize=18;fontStyle=0" parent="1" source="54kXhM8Bq98e1mjiQmao-101" target="54kXhM8Bq98e1mjiQmao-66" edge="1">
          <mxGeometry width="50" height="50" relative="1" as="geometry">
            <mxPoint x="370" y="410" as="sourcePoint" />
            <mxPoint x="394" y="355" as="targetPoint" />
          </mxGeometry>
        </mxCell>
        <mxCell id="54kXhM8Bq98e1mjiQmao-104" value="" style="endArrow=none;html=1;exitX=0;exitY=0;exitDx=22;exitDy=0;exitPerimeter=0;entryX=0.548;entryY=1.009;entryDx=0;entryDy=0;entryPerimeter=0;fontSize=18;fontStyle=0" parent="1" source="54kXhM8Bq98e1mjiQmao-101" target="54kXhM8Bq98e1mjiQmao-66" edge="1">
          <mxGeometry width="50" height="50" relative="1" as="geometry">
            <mxPoint x="370" y="410" as="sourcePoint" />
            <mxPoint x="420" y="360" as="targetPoint" />
          </mxGeometry>
        </mxCell>
        <mxCell id="54kXhM8Bq98e1mjiQmao-105" value="" style="endArrow=none;html=1;exitX=0;exitY=0;exitDx=30;exitDy=8;exitPerimeter=0;entryX=0.555;entryY=1.006;entryDx=0;entryDy=0;entryPerimeter=0;fontSize=18;fontStyle=0" parent="1" source="54kXhM8Bq98e1mjiQmao-101" target="54kXhM8Bq98e1mjiQmao-66" edge="1">
          <mxGeometry width="50" height="50" relative="1" as="geometry">
            <mxPoint x="360" y="410" as="sourcePoint" />
            <mxPoint x="410" y="360" as="targetPoint" />
          </mxGeometry>
        </mxCell>
        <mxCell id="54kXhM8Bq98e1mjiQmao-106" value="" style="shape=cube;whiteSpace=wrap;html=1;boundedLbl=1;backgroundOutline=1;darkOpacity=0.05;darkOpacity2=0.1;fillColor=#f8cecc;strokeColor=#b85450;size=9;direction=south;fontSize=18;fontStyle=0" parent="1" vertex="1">
          <mxGeometry x="427" y="349" width="5" height="15" as="geometry" />
        </mxCell>
        <mxCell id="54kXhM8Bq98e1mjiQmao-108" value="" style="endArrow=none;html=1;exitX=0;exitY=0;exitDx=5;exitDy=5;exitPerimeter=0;fontSize=18;entryX=0.527;entryY=1;entryDx=0;entryDy=0;entryPerimeter=0;fontStyle=0" parent="1" source="54kXhM8Bq98e1mjiQmao-106" target="54kXhM8Bq98e1mjiQmao-67" edge="1">
          <mxGeometry width="50" height="50" relative="1" as="geometry">
            <mxPoint x="427.1724137931035" y="351.8965517241379" as="sourcePoint" />
            <mxPoint x="448" y="357" as="targetPoint" />
          </mxGeometry>
        </mxCell>
        <mxCell id="54kXhM8Bq98e1mjiQmao-109" value="" style="endArrow=none;html=1;exitX=0.025;exitY=0.043;exitDx=0;exitDy=0;exitPerimeter=0;entryX=0.529;entryY=1.002;entryDx=0;entryDy=0;entryPerimeter=0;fontSize=18;fontStyle=0" parent="1" source="54kXhM8Bq98e1mjiQmao-106" target="54kXhM8Bq98e1mjiQmao-67" edge="1">
          <mxGeometry width="50" height="50" relative="1" as="geometry">
            <mxPoint x="440" y="420" as="sourcePoint" />
            <mxPoint x="448.0446927374302" y="351.22346368715085" as="targetPoint" />
          </mxGeometry>
        </mxCell>
        <mxCell id="54kXhM8Bq98e1mjiQmao-110" value="" style="endArrow=none;html=1;exitX=0;exitY=0;exitDx=10;exitDy=0;exitPerimeter=0;fontSize=18;entryX=0.525;entryY=1.002;entryDx=0;entryDy=0;entryPerimeter=0;fontStyle=0" parent="1" source="54kXhM8Bq98e1mjiQmao-106" target="54kXhM8Bq98e1mjiQmao-67" edge="1">
          <mxGeometry width="50" height="50" relative="1" as="geometry">
            <mxPoint x="420" y="420" as="sourcePoint" />
            <mxPoint x="448" y="358" as="targetPoint" />
          </mxGeometry>
        </mxCell>
        <mxCell id="54kXhM8Bq98e1mjiQmao-111" value="" style="endArrow=none;html=1;exitX=0;exitY=0;exitDx=15;exitDy=5;exitPerimeter=0;fontSize=18;entryX=0.526;entryY=1.001;entryDx=0;entryDy=0;entryPerimeter=0;fontStyle=0" parent="1" source="54kXhM8Bq98e1mjiQmao-106" target="54kXhM8Bq98e1mjiQmao-67" edge="1">
          <mxGeometry width="50" height="50" relative="1" as="geometry">
            <mxPoint x="450" y="410" as="sourcePoint" />
            <mxPoint x="448" y="358" as="targetPoint" />
          </mxGeometry>
        </mxCell>
        <mxCell id="54kXhM8Bq98e1mjiQmao-112" value="" style="shape=cube;whiteSpace=wrap;html=1;boundedLbl=1;backgroundOutline=1;darkOpacity=0.05;darkOpacity2=0.1;fillColor=#f8cecc;strokeColor=#b85450;size=9;direction=south;fontSize=18;fontStyle=0" parent="1" vertex="1">
          <mxGeometry x="508" y="344.5" width="5" height="15" as="geometry" />
        </mxCell>
        <mxCell id="54kXhM8Bq98e1mjiQmao-113" value="" style="endArrow=none;html=1;exitX=0;exitY=0;exitDx=5;exitDy=5;exitPerimeter=0;entryX=0.529;entryY=1.005;entryDx=0;entryDy=0;entryPerimeter=0;fontSize=18;fontStyle=0" parent="1" source="54kXhM8Bq98e1mjiQmao-112" target="54kXhM8Bq98e1mjiQmao-68" edge="1">
          <mxGeometry width="50" height="50" relative="1" as="geometry">
            <mxPoint x="550" y="390" as="sourcePoint" />
            <mxPoint x="530" y="352" as="targetPoint" />
          </mxGeometry>
        </mxCell>
        <mxCell id="54kXhM8Bq98e1mjiQmao-114" value="" style="endArrow=none;html=1;entryX=0.52;entryY=1.007;entryDx=0;entryDy=0;entryPerimeter=0;fontSize=18;exitX=0.652;exitY=-0.012;exitDx=0;exitDy=0;exitPerimeter=0;fontStyle=0" parent="1" source="54kXhM8Bq98e1mjiQmao-112" target="54kXhM8Bq98e1mjiQmao-68" edge="1">
          <mxGeometry width="50" height="50" relative="1" as="geometry">
            <mxPoint x="514" y="345" as="sourcePoint" />
            <mxPoint x="530" y="350" as="targetPoint" />
          </mxGeometry>
        </mxCell>
        <mxCell id="54kXhM8Bq98e1mjiQmao-115" value="" style="endArrow=none;html=1;exitX=0;exitY=0;exitDx=14.999999999999998;exitDy=5;exitPerimeter=0;entryX=0.526;entryY=1.004;entryDx=0;entryDy=0;entryPerimeter=0;fontSize=18;fontStyle=0" parent="1" source="54kXhM8Bq98e1mjiQmao-112" target="54kXhM8Bq98e1mjiQmao-68" edge="1">
          <mxGeometry width="50" height="50" relative="1" as="geometry">
            <mxPoint x="510" y="381" as="sourcePoint" />
            <mxPoint x="530" y="352" as="targetPoint" />
          </mxGeometry>
        </mxCell>
        <mxCell id="54kXhM8Bq98e1mjiQmao-116" value="" style="endArrow=none;html=1;exitX=0.019;exitY=-0.018;exitDx=0;exitDy=0;exitPerimeter=0;entryX=0.512;entryY=1.004;entryDx=0;entryDy=0;entryPerimeter=0;fontSize=18;fontStyle=0" parent="1" source="54kXhM8Bq98e1mjiQmao-112" target="54kXhM8Bq98e1mjiQmao-68" edge="1">
          <mxGeometry width="50" height="50" relative="1" as="geometry">
            <mxPoint x="514" y="355" as="sourcePoint" />
            <mxPoint x="530" y="350" as="targetPoint" />
            <Array as="points" />
          </mxGeometry>
        </mxCell>
        <mxCell id="54kXhM8Bq98e1mjiQmao-119" value="&lt;font color=&quot;#7f00ff&quot; style=&quot;font-size: 18px&quot;&gt;&lt;span style=&quot;font-size: 18px&quot;&gt;depth=64&lt;br&gt;&lt;/span&gt;&lt;/font&gt;&lt;span style=&quot;color: rgb(127 , 0 , 255)&quot;&gt;size=128*128&lt;/span&gt;&lt;br style=&quot;color: rgb(127 , 0 , 255)&quot;&gt;&lt;font color=&quot;#7f00ff&quot; style=&quot;font-size: 18px&quot;&gt;&lt;span style=&quot;font-size: 18px&quot;&gt;3*3 conv&lt;br style=&quot;font-size: 18px&quot;&gt;conv1&lt;br style=&quot;font-size: 18px&quot;&gt;conv2&lt;/span&gt;&lt;/font&gt;" style="text;html=1;strokeColor=none;fillColor=none;align=center;verticalAlign=middle;whiteSpace=wrap;rounded=0;fontFamily=Times New Roman;fontSize=18;fontStyle=0" parent="1" vertex="1">
          <mxGeometry x="160" y="495" width="104" height="118" as="geometry" />
        </mxCell>
        <mxCell id="54kXhM8Bq98e1mjiQmao-123" value="&lt;font color=&quot;#7f00ff&quot; style=&quot;font-size: 18px&quot;&gt;&lt;span style=&quot;font-size: 18px&quot;&gt;size=64*64&lt;br&gt;maxpool&lt;br&gt;2*2&lt;br style=&quot;font-size: 18px&quot;&gt;&lt;/span&gt;&lt;/font&gt;" style="text;html=1;strokeColor=none;fillColor=none;align=center;verticalAlign=middle;whiteSpace=wrap;rounded=0;fontFamily=Times New Roman;fontSize=18;fontStyle=0" parent="1" vertex="1">
          <mxGeometry x="258" y="440" width="74" height="50" as="geometry" />
        </mxCell>
        <mxCell id="54kXhM8Bq98e1mjiQmao-130" value="&lt;font color=&quot;#7f00ff&quot; style=&quot;font-size: 18px&quot;&gt;&lt;span style=&quot;font-size: 18px&quot;&gt;FC1&lt;br&gt;FC2&lt;br&gt;softmax&lt;br&gt;size=10&lt;br style=&quot;font-size: 18px&quot;&gt;&lt;/span&gt;&lt;/font&gt;" style="text;html=1;strokeColor=none;fillColor=none;align=center;verticalAlign=middle;whiteSpace=wrap;rounded=0;direction=south;fontFamily=Times New Roman;fontSize=18;fontStyle=0" parent="1" vertex="1">
          <mxGeometry x="605.5" y="504" width="79" height="90" as="geometry" />
        </mxCell>
        <mxCell id="54kXhM8Bq98e1mjiQmao-134" value="" style="shape=image;verticalLabelPosition=bottom;labelBackgroundColor=#ffffff;verticalAlign=top;aspect=fixed;imageAspect=0;image=data:image/png,iVBORw0KGgoAAAANSUhEUgAAAIAAAACBCAYAAAAIYrJuAAAgAElEQVR4Ae3dyc6tVbXG8RdZFmCBBUKsUGMVBYwmhqgxotGGTROa9rwBbuE0bNoj8Qa0a2KiDWPLhlERTYhKUEDUWBDAuq6Qk99g/b+MrOw7OGck0znnKJ7xjDHn+671fXtvvO7Nb37zs88888xx/fXXH88+++xx3XXXHTfeeOPV/oUvfOHxr3/96/jLX/4ythe84AXHv//97+Ovf/3rQZ7//Ocf//nPf0bHJvbFL37xIU7MH//4x8ESIw9/uYoZkOMY7Oc973nHDTfccLzoRS86/va3vx1///vfr3LA/sc//jF7a75w4g2PmKvDXj54YtTxz3/+c/ys+eH03//+d/JbG3qAhxgc6E6n0/iLIeo0+IpXH8444iQnPX9c8bKHRegSHOETMx84YsuXvzxEDF0+4uzlZuNXjTiymdXEB/4XvvCF4+QgNYWRYRda4YAUF7hi7CUHSBSnWX/4wx+mMS6APWxxYpDibyAAtyLMiPMLH7dywpKz4uXOVn6z2PZ8YBp85cuOCzvpUOzVgR/+NUxuF5kfHT9c+NA1YBpETjXVTz7i5A+3C1HvJ/DMh61ccAx78XHkXz1dWBdPHr3DUf/F4kr0AY5eGCcOszjfIGsJFAAoR4nsKwQQAdytrSAxmmYvBgF4RPL8xImHDS+s8t98883jq6kOhb+DcHlg0ssD29PIbqgpTPn5yIv7bggMfvIZOPT2giNOI+sJfzgwxRnWJAx7fKoLVwKvtwJf9cBVA9xw+MrRaC8XwdFQrzzw1dQlZIPl8NmqC5/qpyPynmxKbm1IvosViKwiJA1AQS996UuvmiG52JoqiVhxCqZXcHakjPKJZ5cr7A6Tj1uOq8I6FHtrdtzKD8teLnb1VBNe1VluONOQ9SD4CBNL+IlRD1y+1uLksq/+9uzFqseh4e5w/vznPw+mmuAasMIzy8muf/oCLx75ydXT78J6QPSUvvqrmw5W/YJ1oii5ucJyss+uGHuisQgZirJXJIHJz+E5+D4rEagp1nArLDx5+SiQvVvMjjBcT6mia4Y8/PnEVV668jX3hMsjDgabWcPw0UgCSzPh8CdxoJePL7uaxVcXXb2yVofZgGuIKXdvBDlgwNe3V7/61bN+6qmn5uLIAQvPLijfl7zkJYPpYpWj/HiK0TNnpAY52E/+x4aTQMARtN9CrxHZ2XzmiwEsgZjw6CtGoREKE04HrLCaqKkOR7x8HQziciT0RA6xHapc1jUiu3iNNuQ18BZL94pXvGKwNNaoN3iKhWfWK/ikhm4bO0zxBj7Vmd6BEbXSkc3Xm1WtaoyjnsCCb9ib6eILi17NuJqJGV5nKJdx4mRoAKcSmCV2u7yyFAxcEJt1xAG//OUvP175yldOwb/5zW+O3/72t+MnYV+gEBETiWF2fqrkwkEh7AqXx3o3VCNdDDz4VCSefIl5Y1R8tWpQ9XSJHBSdmZ+a5JfLbJD46wk/8fDF8c0fVk0Wx3fj2ONYLfYw9MDh6weeTzzxxOSAR1wYteq17yceQLjWnUmXAx4O/GHiyo/gLOepA5XYACKx4ZYiArDmACX5K0KMQoADNttLUEOQMPgScTD51hhzxKz51CgzG8GZDcd8HAg7fPbtz0cNuPORFy9reeLDTyypTjiGvaGJxfCFK05eM07lL24Az7yrAQf+5QmTDjd98TAQvXYh+dbP/Ko5G1yc6OWvTv2xzuZcxZwU5Kmq4QILllxhDu5Pf/rTNM7nUnbJFGyvaLcRniTirMPrs7dCYRdX7sjbI0uQhG2vaCO9WZHN+dFZd0Hg4aSReMg7xZ9f/bDl7oLqh70aDHgNuMXiApuuGqzhi7Mmcc4PFowGn3zx7C04wecv0p1RvYUpBpbcaiW77+z8wqwWeZ0N+0lTKDjWMAGa4gsFWwXRa0zNsK8IBHs9dfAa2mddScV2u+kcSLnlrCi8iNxy7kbTwcmXXzzorGGFl06esMKGBZtUFz9iZtvYemTvCYKrB/zM8WHXbLFscOnYw9uHwYeNwDHg40b0go9+6he7J9pM9NsbIj5yETHN5caFP7E+ebI1KqIl95nhQPvFDkKKB8S35lpXFIIVizxbvmJhSO4Q6GG5ZK0VGlHxYQzRiyeRLn88xRVT4838CHt15mevWfxIl8PhqIU+rnQdIkyczVtnbcBnk7MRDzik3HrCpu/btxpgET7qxUu9W2DqK70R1x7o9mF2AWCc+jIjeVLSDrxG86kwBZS4Bip+QM9FKop/Q9Miwc9eTHp44dPb42DGiZ8B197HEal5YhwYntVQXeJg8zHYdxwdwY9fuPZ86fAwYNULcfYkff5s+bHZO0A6ddl7ouVoX6+7IGxqkt/It550acVbw4TBt/47cMMejx5UnE/XalSvF0TZ3SqBGwgYMhWGkKQRUAAiPgLyg0WHbI1pht0ajmJge0JgiqHnV3HeXmzF4US6GHjzZS+nNW6w2cwGaR9eTe4Q+NAROvny7WDtcQrXWt1ymh24PEkXwOc+PR9cE7p6C6Maq5sNF2dG+PPTJ9h4dEno+OJIzPNjYEVQcjBqikQ1zGEgiEQFVkzACPFXhLWZjU4en1VGmPASuvR0csOQj57AIvLWKH7EDPtlL3vZxPhekq/c4cEw5OajFheTWOdnFletZnnpu6DhTvCZF2x6EpZYukvOLjGbGtVaP/jau1gODk/fnegua6fTH3ojnn28wKJLcOA/OSkBGBy7LYAInbVCBCGIUJeghIqWpGLMdPBgELHWFQHH0wqXXzn57pyKl88hiYVrDysMe09BjZIfRodR7vTtq4+fGuUojq46cLLWPDHF0eMETx3s4u3N2T2NuHnS5WGDIaYa6Ozp6Xrg6OMFV6/ksaaH1/kUm14snP3jthxih5sAhRHOBjD6rasgTQEOtKaZEYLTQXbI9uEoyr44GMS+vPblhtfHkfwwa551WJ4SF8lecf0YBeeyJnsCR1641ctWYzqIeiPGJct3QM6XogvAXp9gxVceNpjVCpePXuIPt3r5xE9MvMJmE9PgT8zhitOP+NcLsXCcxXAssQ0nRkMgQEB8iJnOUBx/hZU0LPHZzbDzg+c2hhcGTGtFwUNeTLziwb4xxfHVSEVtfhWPD7H3EcEPHt9q9X1Bvs3jpptuGuwuofiwcI2bNRtc9vRy0Vc7Pf580uEuns5swBEnr56KMwg/D44/KdUHdXizwLMnagjfWmy+9HHkO38WUNGScuZA14hYCYDwk7wvWsCQ5eMwDHg1GgY8T6eiFYl4wpeILx88fnKJsceN4GDQwXWp4l98vjBIOXBjw42OPxx5rMO1L7+1mDCLERcXtnomnwtQPeLri3Wv5DjII1ad7IZYF0Yul8Hsx3N6fZfboM8fFzj29NVsjR99tU4MZ04OYwNxlshgtxdIxJTY3KA3FFE8QuKNisufD4moGQ+vc38Kxt8eJtlFxrcDgkniaWaDZe33GTj4qMrP3gHI4zPaATmYLrWmsxP48vPpgtDhVlP5xVEtcPMx4+NSiKmvOLCRzR1vUv/YYHv6+fv9CXx8CJ5yGnzNRJ5ErnzEDo+UNoBLZM8mKTELFmjdUJQk9sXA0WiHRB8uHIVt/169bLAU2GGwOQS48So2XHw0SWPjYMZdc/wYWjPwKH+1NfPpwnTAcsKXEwdr/gYcOWGyqZU9nnzqB7waT9+lo+Nv5oM34QNr66ubTW/7GBVvEP74xJevNR2RV6w6858fAwPQeH/KJLk/zeOMVMn5VbDiiJleLJubqRnZ2WAYDsQB0yGLkMIR7SLJTc9H/oqCXYPowq9AGOLorXtSf//7308OF4nwJ3F0kDiVV7zXrkHSw5aXrxhcXC7fE1zU3/3ud1N/9eArxoxLOPDpXB71taeDX7/g0NWr+iAXXFKMWf/p5TGIWHz9WKxefypLB7szPUVAAGd/rOt2aRzhSN9nEQJiNFlijaj5wPkrThKk2SpGI/iLRxYWO51Yo6ZM8vXqZRO3v+HLDztMWHLyM3qFW9OrId8uN654+YjAKc49YWLgwoinz2F5DY01iqUjekbEwGc3cNYjeQzSXC/41w95xeXHx4ABS2yXix9/dhi4+zsOLsCTTz55VYOY8OdxSOFAOCqoW1QyYOz0khAgvU76gyMN7QIgpCHIkjDlcwCwNYjANBRFz8dgN+DIxWYtdxdAHJ+48FFDzWYrTg2a4xC7bHjxh8u3vPBgmDs0XPuTUX5dSBhyGMRejIsQHux6EWd1EHHs1aR34ox86PjY4wrDOs72xJ6v3N5W9OrLzke8nPMRICkgDekPZ2oeAh0WEH6RNEcaOEA6l4WffcVLKh6WGDbCThAi4Tik8OjFkBoDn2/xZgfFT/PtO9B48Pdk0+OJi8OEJQY2vT1xWNW+L4BLBAOeNX9xcsYZDzF8YMDefLtU/OkNEldreAac+MIVKyebtRg8yh2OnN6C/AhfYl+eeTQ5koqvAekUq0Hs3SggbhhCkufr8H0eeaUqnJ84OSSFXSPE2psjZG2ER0/gGHGrYTUjvVgNK0+12YuHpyk4xYNNjWZ46ctBb7jA8NTIz5qu3lQrmx6o34XDiQ4vw16+aq42ezbc+hhQu7VcxYZXPWzlzkccPN9NcHFW6sGJqGdyVSRChuQKNAhAa86E3fAK9QXIOgJ8NMOAG7YCEDCsSQ0IL2wXTL740NcgM+LEHC8cNVheBcp7reZe6vCVR1zY+OEUf3a26pfX6OCt+fOBz59vB1FvugB82MUReeT0Oa0eOHHJR0w1m+WoFvH2ZriwjPLxV59L70G13vHzt4JLCsAIHAFgZoEJAIURoGJqgEQ7iUaw8UFKs9jlsIbNx7qm5R8XPuVgK66cPWXi8Y0bv5qHa7j0xJyPBvLFzXr7t+ebHR8Xmk4+erp4uoj4eProHK5eGdbVpCcG4ef7EywXTC3WePGXi85ezurJVv1w5OdnwGrvAeOvJnjzHUDynK1rRqQA56OAbhByiACSNB8JkWsPW1I4YolCO0BzGHzlN8Rsm3VPidzEIcC0hyHeXi6crM1iYVrzI2aDjYiFY99lpRcTf/Ua6c1wSQfQoTosWGHCULca8Kp39RSX+hIHPnztxYWJq0EPF0cjzOzxxM3o8rHzP2mgJwgQKdlsjmNuDl2iWMEEQM2MQH6bgMTw3UKzGHbEzUhrWnj0HVYHIYZOs9jjC5vAoDMTWCTfDgmOGPt05eVfPdnjiYc4eMXrm5r0EIaDdkB8+YmlM8LlBxsGvnwMB+P3CsXAMfhWu9p626V3YazlCAs2Tt4+YvSMyMeXnzh+85dCLSglJN1OAWwIVADdHgoK2HonEqMRGsIHmcghTFdD2OxrXDmL42eIz0cxDkBsdrj5sRO1wTHnC5/OKJYvPb8axW4dpsY6LD/+wfJdyO9O+ujjD4Pg0gMVB3zxF0ccjhi99z1AjDcobAKLf7Ww0+lpvOPGRxybw3/Na14zeL/61a/m4sDjE5a889fCayiS+8ABIcoRKXYFSKgJ9gpESJw9ggN8vuHsYvlYE8Xyb8/fEG8mZnY6UiPyrQE1mY/CwgmrOVzc8ytH+diKL2c2jS3OGq7PU0+SOIJTB6g+dYtRB/78XCCDb9j04vymjl6suHJaE+dEuoTwvRFghy9eDS6Wn8SqW5wcMIz6dur1AEBRDAghQYcEEUTHBtSeP5/A7Q0+EaqhNUIcGyyNYedPHyabtRgjnzDkg0GfvXX6a/EQl9+QXm8H+3jwMaqVrdrk02RPGJ72fpfQG6En2R9m+RHMP+zQQ3hqYjer3SiHNYwOUB108oolZvpdY73im92lJL/+9a8nvku1cXCCPV8CkUBMMcDtAboMnngAfWZ0cwRbI8Cfj1j+CR82M2xrQ3KzWDHshN4g3jBhIx7OGM/NqCA6TbUvJ9zEmi0c+nLGKaz0fIqxzg9Wb7D0ZvnrgRo8neL5q6U3RTXyhclWT+19lIjjLw9dFwE3faxGecXTwYhjdnoip3wuLVx654TbfAkMFAjhTGoAR1IS9holtoYg4NDYDHFeV9ZI8IVhzQ+OAsR5E/HjUyHsGw8fwh63dGM4vxnYYbFZ42ENO3/6Syx+DlKspl9KWPQOmFQfnj1EnmSvX0JvhIuD+h1Al4Ydr0Y+9TV9/OJh35PvdzL0chMf3erYX/Dp46238s8/D+9wOEheomZ6N9O+gmswcnRmh3hZmESEfzH8YaWz1gSCVAW7LN1+PgqMX/72hI2ITejkUF/xZhKX4rPTE/hh5gvboeCPmyGeH9640pH04eBQPenyF2vIY2SXD465HGziDDFwxVjrdXXwN9hg+L4i1gXge8WFMbKeRgECAUsiuWENQAJDTGQDVrhEYYqTrDi4vukaPje7LDWMvwbDRbT4CpE3ftbsDT5b7NnM2yaeNFvnUwwd/GTr1ePHNTw95UacynctbuL0cNusYfekw/EQ7f7FA3acm9kMe9iw7J2dP86Xkw6eB7izYXcmbKdurA1xiwBKCIBUmCQdDB8Xps82cZtkhPixwefrRyZy2QyxdIR/bxp6gou1Ysx4w07iXB3F2e8mWrNtP3vxdNnC3rh41XDNZPPKxUVTxePJJ6xq2oesBj50W+jkgNsh4WMk8H2Ww4ANox8p7cXCKAfMzrEv/LDEsc3fCXQbAmyWlJMZGTNghVt7eh2SQ7Xe0mHxQ8qw3rEwiXyalR8uNUYxNUO8Qeia09Xw9uNw/h+2/C/1cQ2TPQxzeusOTSN/8YtfTF9quhzlobNWR4fRn7LSw4RlrQ/1oHOwn8M5P6X85Y8XTKNfCjmH6qOH6Q0bdw8qTj3scFxceU77NkWEg8YAEAS0W2RNvAk6eD5GRYuzVkRvCDr4/r6BtRw1IV/YdOzWGmhtwFcEHnwIDLHN1nLsPV/7cvLZUj66eIQpzkhgV3MHn70elZ8+vurAWw14WBt87cOyN3DKXh/sXZC+NPsY8lHqYnm9O3Rx9HEwi8FFblIfrOnnPxJlIVjhEnEKBPl+RenGOfiCgWpIjSuZgghMOvYwI5I+LD50CiQKCjfS9gaOOButw+FLqic939ZmOARXtnDN9unhEDrY6i1nOnOHLK5YPTT6hu77gj1fkh0uzHLZs6UvXzXRkz6G7PFyNoa9/oWJD1EbDPk9mC7XfAdQACMDUMm9Iug5sRHBHSCdw+IrQXO+bPwRMyNDzAjyp7eWo9cYncGuGOsuS4WYxbGVz96aDu9G9km+Dp49KQ7Gpb59OPa49cThThdPmOxxbs++eesDzGYYhjjx1uzm+tvDRu/J159izHvAsXde1t709j6+1Ek3nBGQkDAIMBuRo+ND1wxA8cUhBdDB85OsGY49ny6NYuhcui4L7PDNmixPmPDFmGHWmLjSsYXBl5j3epTn/9n67bd9YJZbzvbqx4+oo8vAx4hP3+z1US2kg6hvaiVxqGd0+Vjzq+786wW//K31QU6CW7n1Pr+r3wQCFmR0uBL1mykA3g6ErmSaTzpIZCQVq1GwFBW22V5cFwTRcprFy5EdDjGHI59C+kUHXziJHEkx9nHJ1nzprw5yeZkuubDrnacRdzzkMxM6h008hXBxp8ddLNk94WOUGx4JMwwx+lSv7Q3+8HEVY5ZHnHOsBrb5W8EAjIh0WwLQaHbASBkVK4afwa4RJeNjLVHE+FWYWDEOnL3GlEde8XKzdegw6I1wxVhvsc8uhlz65H+pLzZ9c4cgH172eJB6qG5Pm4bHlZ+hdjo95kf4VSefaqEn/OtJvRCLE5sYvTHXE+vsMPqyaC03f/b5TSClLwWkVxMH0s2OpAKQkciIrMNykOyAI4xgn++w+SBHz8+ar8Lc5i4HPIIsez5iCBw+9rjxg5WOfzz4l0fe9mZ+W8QYeBBrsv1gGbDKbW3Q56+m3SeYfPTBdyzrfkrKVn6x7M5BbnYjvQtgT8z6QSd/fuLo0ouFr1d8rK/+XcA+cGBuMAKCAFkL2jesJrBHXLJiFcrmxxX4fjb1R54wI85OxMvbpYINi72izCQOsznH4kYUB4tv/vmZ6djVQ6yT/Ksn/fZjazh88e1hWncAbHwM2LgZvSX55iMmbvzDtGbTGyJeHhidTTzLJZZPNdqLg9P5yGWcHJbD8fkuiSeIo8+nTYpzoAHS8TdHGBlEJFQcTK8fP0pGCK41P7EGXzoEI2tv7cC7HHR86fOTs6LD3Lz457PziWEzrMWmq6bytcevvrCJIen2np4PEY9Tl1/PrcUVSyc+vVi1iy3O25Q/fcJu0KsFxmVe+2oMj+9cgH6p4OfUfoO0nUoERJBZI0iJHYa1IrtlyCLar0vpkSCRGRLn1xRcOOZ+DHVBO5SKUygdPDnDgqt4o2bQteZXDbCMuGQzw8wGy7o84re9fZz4qwFOuYt1iNZ4i+OjP+USJ57O7ELAdT5+l+Bfa+lvXPmwJ/Eyx0ceArv+s5d3/kpYAZTWgpCVyAEgWCIzHwOBSHhCKwRJGGykQvmIZ0OIfwTl5mew+cYMx9uDj89KOuveBvEtD5sRbnWVkx9d9ZjlMxNzui6XHInYnsT8YcOouZeNZofJTnCwTifWRyXe8KutesX495pw9IMPscaFns5cLpjVZWavDnn42Q8HX7wskLAm9pxIc83d9nSBiishPCJ5+mZvBh85SPgsqyi5FEb4uPlw6HsTWFccvA5VjCeGaKIBFzd+1oZ4gy4+8Ih9NfEtjn3jbP/WZv7qiZO9w3Yp2OUlsNTD1gMWXzEGHzGGc/F2hq0n7LA6RD7xb80OI3FZ7A029ZH5O4GCgJmRlwBpjpLSN9iB8Nn+xbEpTEHi6e0duBgHKg4hJNjlMnAQZzbEGTC3TYxBL86lsX/d6143809/+tNpGl0HKefmvPXZahY/Av9S2BrsYs011N6h0vVTTZ/teKrD5WbXWzprPvRmOnXLA8N/exk+bB+NZr0l1s3qJfXdulqqF64YevMJIaKRiAgew/mVZc85ApIEau7AwnDQGoB4bwEx9A7dl0tzF6BcERwy63N7F8U3nvnD0TB/zPzhD3/4uOWWW46vfOUrxwMPPDDNVtPm21q8wW7AJuGaSfnT84NhplO/pnbI9Gql09veYLDE0Rs4718ElZsNpgGLnzzqdhb09vx8TOz66OSQU19wxyue9tXbfPUGKJkAf77sdgrk2AwcIUAIEXZrtg4HScXTEWuf5QpArFg5u2D82AhMOdiJtWLh4AWXDY7Lxm54gt74xjcer33ta+dHzy4bPCJOLcWXA1Zcm4vhT/jEJyzx8mt8dv7qhwODXs+y48jukPjaq7vhwaEXw6/a6h1b2GL1gF8XhU6u3hTs9ZVebFzUMf+hSEk0mKO1S6B5ktELMuyNGsIfMYVqgmTikRnw9bpRMAzYmrYJi+lJUQCsDqDmxqEi4MPyOwaXwgX7wQ9+MHw08dZbb52/lcuG175oNRdmeYbw+ZJcSy8v2fXDhGVWwz5w+hpPXx7c+BN9UIN8Lncxaqbjt/OJgUNnlpOfvWFt0MOQX/3m/NXBNx7zZwEUHRASflkDiLNggNZGhZQwsmx+VPFN3Y8rYkgEKlqcYb/J08HYehgOT063HJdwNI8evlivXX8N+5vf/Ob8dShYYnFyqfpRlD8svEkcWts3xmF9zqaHjZt9fODRV4c1qfG4xF9sH5W4OHw4+cIVH0d2e3Z+4tmcmfOSM521+MRejPx6Bqde8rv6r4QBqhizJ18QvSCDVLhiBmA1kp2feDaEdywdQmLTh8NGx96gkx8OP8TZeot4yjXCwWsozv4uvNvdgbzqVa8a3nQEjqEO+XZzYcuZxIkfyRZ3GLDs2YwOscNirx4zX1zxssa9PPVL/9g6MLnFOg8+Zrn1Zp+PXC54fMR1FtZ6Ym+IhzX/OrhCEAHCEOkCABSULf8I+ouI/bgiLqK96uh2wxAl/JDbBdDJ46NInj4a3HoXAUdN9MWP7emnnz4eeuihwfIW0tgarEk+IuCXr7U9v7iYYRN595rOPh1+1maNt1arPtnXAzjWBFcX1z/b8qbULxda/fwSGMWZ2dNZJ3QG6U2SLTy9lKOPWTXam6/+LAB5ysjYK0KjrEuq+YoBDqAhud8i8qPjYxZL4GhU/uIR8zTwoYftsPjlr2GayiYHG4HPRzPvueee40c/+tH8dbP+r1R++MMfzmsfJxfCF1sfbeJqGKzwcLCOnzWO1SmGjZjTV5+9GD1rzU9cvRDLRy0uZH8uAiM8/tb6kL+9czGTuKofNpvfD8htyKtn8REjto95/vLAmb8RVEEOr0G31w6LSLhnSQBVaCTH6fw/sBJrvuYKhwm/fPu1zIeNDz3yGuiV7on/4he/eHXz6cN1Mey9Gehg28Oo+GnAepr4Jfy38DXUm589LEKPo7mDyc+sL2xm/1ysf7bFBoPegOnSqxlfQ8309aleyCN2945fH98OnF3effjiDPr5PUCFICMhgycTMEd664pQ8C7KGoY4s+ZJTG9NZ8ByAHAUYR9JpMWTbqhbHC5/a7jE2tP93e9+d16jPg74vOlNbxqujz/++OTyewEcDE+Vj6l44YEDUV/NojcS/oTdEINrg72aiq0X9vVD7fU3nToMfrD1gewfYfUjXDXCptvCHzYsNmuDxFONBEZ484dBgkiFFMiJsNeommcGvA+UjkhA7A04dHDzVyxCMNj7rJfLYHcB+LBVONwdy/bwww9P4z70oQ8dn/70pyfO5yubhvoI6FLFQT2bHw72DganbDWLDhd2tl7R1ctu4Eb4haVmMYS9+szyiuOLq9lPLPCtwxPrNa+OvuRae4DUVH5+Plrs5RRvLZe9NZGL7erfBiJpVPBuiOD0kR6UdciAK4atvTgxSGr6JD1/4bHWVHkrItwwFKjgLqBZY8pl73OP389//vPj29/+9vGWt7xlvmR5lfa5L4ZPjdj1wYgnTmz88q1p5TQb8d+1ZtNs8WwGX5K9WV75wzDb8+8ChGUfTzprowsWd73kCy7YKDIAACAASURBVMu6WsrB5vLAmF8EZTBzRi6yJaSPgEbyJfQDdH7VR6qikBMXCTF8kEWipwoeXzM7gaEA4sayGfKZ8Sw3nJ/97GfH5z73uTn86vClEI63QfnKA7v8YckNm56kx7daq0XuhjjrGnstfulgw6s2OQw84wYnvTiXvD1eetqeLzyDvr7hQ2fmCwd34i2D8/z3ARgjHwBnQB2GwEgB4J9IwiYW0S3i2CMrjs7r3VoOUsNrUnPxZlw0yFous3j44uX2B0G++N12223zZcqrVIxmV0uv2n49jQcMeNa48reWh3/fqtnCw9E6YeujAVZ47HjC0yffr9LBpyfwSHH0cR7D2cYeHl71N756wQe3+t5cnvZX/+fRFICACC5xjQkQ6G5+t5ifGINdobAQVRg9H3o/kvVjmVc0fcUjL4d9zbHGD15DIXHjlw+9Q3DD3/72tx/vete75iPkG9/4xvxuwH86FX4fB3281FR8CZ6a62Okt49a5YGvHjH44FGzxaaz5k/4qEGMmb+RrVrE8ul7i98T0OkLbnHpCYZR7TjhiLMYg02cnIZeyVWe+cOgit6GHDRC8sAl1Bh6gESSBqySVBRdROj8EsSr2We2AmEq2hAbZjk0XK58cNMgomB6Qg8fnqcbbz8VaEg/HcjnMvi4qKnxEwvXrF6DzSXposOSTz3VjzM9H1zx7s/tXTQYfOuheFxJBxh3sXRyiqHvJzI6seWFJ/fmI1aMIW99CWsU6zvaXAAABkCflRrgkIFZS2JN8jUDzS6ZpHzpK5aufTFuL91++uBcEobRxRIL257gAwN+nGBYi7P+yU9+crz1rW89Pvaxjx3ve9/75suhJ+izn/3scd99902shtd0sd5M8ugDfl3cPgZ8zJDqcujW+oUPLAdmXc+ydWlckurhT+SEI6bedXFcruwudj2hc4nrg0tHYPCRo/4Uwxd+vZ2PgJwk5AiUaGJregk1ItLAJDF6EsXA42utWIT4wLL+5S9/OT5IwOMnt1FsRO35iWudP33+mkSPp5yePN8HPO0OUvwnP/nJ4+Mf//hwcwl3TdaGg3cJ/P0CeOIc4B133DG6b33rW/Pxoh6iF+qqNnq1w8EDL/Eduj3esA08iT6oWZw+wKkfYsWw1Wd1i+cjTg5vL3ofq3jDUBOpn7M5X+DpHeI1mBFBZABLVpPtJeRvDdi+xkV4+7Ff3v7iIhIxs8YZHSYsA1Fi3SyfGDoN2j5y2BuPPfbYcPSl8POf//zx9a9/fT563vCGNwx/HwUa1oWF1xtKH9RL9MHTL6c/gubPFw+XgK+8DtRBOQCCg1i+Zv56okb+uIu371Lqm7j0cnryYXi7iDNwYONvOC97g10+GJ2NdbXwp58/DQwwwgVzUAgghOiBE2vNQRwRPoo3k4jBUGQ6djpxCBuErmbRtZcnshsjHmI0xuHgoUH2YfqFkF8U+WtVLoG/LPK2t73teO973zsXwT9Xh+U3hnjyJ94ADsqvbTXfnzXgQvyauT9s6stafGHB4UtnX0/U0ZoPG/7y4M6/GHprhyZGr8Ub6nMufOzN6jf4d+j2BE6xcJxT+Ff/z6EIS6T5wN1oh8S5ZLsYa77IA5MURr4ShkdfLDL86Qg/NoPegGvPhkN2sQqQi04jakyXxsHRe5rkF088lT2lbHj7KHJhfCEtXtP8raIPfvCDo4MRN7n8vUM8fKx0iA6vyy8fjGq0Vod9tZvDhY1PfHGtX2LLrSZxRD787bts7Hy7ALjKEUc2g59acZLnVCAFwGZJkLYHZG1EUJx9wA6eH9AwOmRk+LJvv249P3hD6PzFBkkxHbYGVyB8/vBwhsNG6Olg7YPQCN8JHn300cPr36+N8bJ2aH530OG5RDA85f68wSXptX/nnXfO/6HVV7/61blA8va5LT/MnrBq5hNHuPTEuoPqULZdHCw6om4Hr0ZrOOL4WavZmk5vrMOzrvfl53/9M8888z+cAXpCeqKBCDBzFGSUGGBSYnNEW2uq4uUwYFS44tnMFaX59vBhyO/wxMEyCFux1uL5OnR5arg1LDY/AtL7jzi++93vni92/lMvvif4aPjABz4wHwVe99///vcnzuFnE4vfJz7xieOjH/3ocfvtt88fLsHoDXBZp9z1rl50MV1umD3N+l2PW9sTsxrFmuHuXM4FPsx6IY6e5G+tv87gU5/61HO/Ci4JQIZIaywiAZgB0huJOBj7trGnhwfH3MGwi0HY7ID4I9/cWpwmuaDEheCvYLqaAgc//n0RszfkMby6HdhTTz01/386YuSB5fcTfpTyneEd73jH8frXv35wfD/wMeH7wI9//OP5GHjPe94z9aoLHxdAHiK/JtvDVw/RH6Peie2jSV9wUCe7eCN89eLJD4ac/Kzp1Caejl/5zHQ45J8Oz+tOp9M8yjUv0vaSGxGnIxN4fv2z2W9QhAx6iTsA8ZHhT99t5KeoiuTXYFOgw8bHIcJWsB/ZxGgkfzq5NczgJ5YODl85vfodtqfbj3j+boEve3L4YugJ94dK/lgZL5fGR4iLIGd/pu9joidaffVKPtLByZ3OurrH6XxIux48cTe7XOb65ZLYlxcWHf9+5I0HfLzE6g8+/L3ZvvSlLz33BhBIgJZIAKKArCuOr0HPbs1mhGN2UOI032zQwxdH+CgCVgfEXzEKoXcgSJcLeb5i6f0IF/cKlCfuzbDE2JsdrIbffffdx0c+8pH5eLj//vvnCfd579fI73//++eCfO1rXzvY4NdMuX0/cDnkqz/42auL4CpPfPO150vg4kc6QDqDiNE/fTGs+etldlzix4aPffn40cmpp/3C66ThgQAsqUYRBQgSDAzxRCIDBptm5Cc+PD7shN1eEdYVYU/Y5HND2fjYG7jJDytMe7F4lk9uQyybOLZy4snfj3A+7+E9+OCDh/+sern8f/N69fsu0H90EYbvCy6PGE+mHEYir3wGfYfWd4T05jhWCx+4bNWID9Fjbyx4ahZrbd44vQFxdUlhqRUXa4cPBwafEwWDpiQAI4UIoeNHKjqygbNJxg94sfSI2UvMv8OwFmPggDQbkZPwEWcQ9rA1SGz56A38jbjhpGH85eCv4d/73vfm2/473/nO4957752L5+8UfOc73zm+/OUvz/cBsbDwM/AIWy52nMz1SR45PNHVFxe+uJB4iyU9kDha65u3iX29ac0fF7GwDbnMeJjrpZmvWDXgJff8u4CaWVFmBQDeBdIh08EgYK2REhMJCIySh1uD2K3hKdK621/eiMIw5MHFmr+hwEQOHODRK1aBhJ6dsMkBj48HwBPuQO6666754ieHz8dHHnlkbGr2USOmPyzCV3yY4bc3y4tDr2ec6eKtHpj0csLgH8d0PdX74OHLD6MeinW41W+WD748cMy+68A25i+FUtZcwDUToEKJRmmcBDUfOBEvht4gHS4bHEMOekQ0XDy7HG4kiSQ9LCT5wldwBToIdk1RaPw73AE7f35aw6thsHwGipHX7wDk8csfbwK/NfQPSuSl5+NLpjzxqelhsm2xF48jH/nlFa8XPSj86PE264VZLFv1isOXhAGzPruk2etvbw4c0ompV/DnL4UiSDgZBEFEOQkQiEw3qgPVCIQqyEUhYowawAdZ8TA1lQ2O/NYKZyumxog14MnDHj69eHGaVk56udgMWIY1H3mJGZ7P/8985jNzAfyI5xJ4M8hnhKEH4uVL4MZJzmrkp+by7EsQhjk7TP710GWQD74+m2HLFZZ4PuoQ30HjHMd6Ecdi7OcCWACvuQID9IVBMrdJEzpwpAGJoYu8b9BivWbEwY4Afxh0fEgFWcOIdMV2wP2YB0N8bybxW/AxxGsGbrjXMPji4ZWTLx9vAj8W+jcFhj8XcKlIB4C3+GqGFwc58CUOJR728baWr0Fv1A/5XILdOzFdQDP/HiZ+YsuNT7HWfOVKb4+jPbn6+wAUCvNkFqDICpVEcuBAAhBj2BtsCf+IssGA7VLVoH0BxHVZ+FnL11MQhlmcWe6Enz2bWFxqDh/7nY9v9ajTJfBLIBfH088mXoyDaQ3b4cLzUcRfbr0zE3hx4IurXqjLgNmAIzc/PYMjd9zEwiJmAz5fNmuxcvszBbjlFgPHA6kGXOsL2/wnYiiAmQESa4CK7imoYQpQTM3nIyG9JxOGNbFGSIFy+PGuPTscBMWz89vY9PxrhpywDbY4mfHgVwP40BdTfenawwnfwedfY9lhV2f94Ve/OgD7asaDXtPN4tUmr714At8QR1ff8YchBoZ4cbh2YbKL1b/y8LeHxycssfTJ1d8JjLgZwRoSsD0BRuwDbZYMMfEGvYF4Osn7bOMfQTPfGgNfUxwCYcdFM+JKX+PocNM8vhVJrxmwYcLHhS+bePvw+dERvAk/sXKzwRZDfJTISVej+csTB9iwxKoHVphiCR92Odjzt4dryEnPzhdXODDM9WrXM+Dr/4Mp7tU/PwUAEizQsOcgETEbbCWOoCe6htOJRTrhLzZMe4IwXTlrIp03Tje5JkY4XHFxguWQ+fBPzwcXtcF1OTtoMfyrWz4SJxjG5isHPHXCxjneYtn4yCGXHOLty+vyt+evf6R+WvsIIPjx4V8cvngR2PEoVx9V5RvHc12wYIpT57kHzykEAK4xNaImmjuUgIDnz26tEDgSJfYREruSj38Hw+YzVRGa4OmCB1fhbL4h89cQOTsMPgYM+djiR5/I3aHGi04cP+vi+kynUw//7PISerUVI28NdhmzmeuRdZji6O0Na1zM1SYvKTdb3Lv4ekJnz09/7NXE//JBYqOf3wRy2jdMswk9QHvNEEDngCTxhcMfsUaYjl2BLktEYcFQkEO1FuNAPUHI8yU9iXRIw9NQw1/p9rdxfE77x5XZ4fbLjZpbs8w1S45yi2XDgV4+OPjg5qKpUyzhw4YfTnzNfGsmH3Y9E5vwYyP5iyd4lEOMOvmIkS+beLW1F0vHX01w1GBkM8MhYtnE0MXp6m8EAaKMOEDAvrEjFFhEXAhF2NeULsA4n5PD6Ckx85FLHk2GDcdv2hBUoNwI84NfDnZ55eNjhgeXTyLWvvgK5iefGS8+5bLmFx8XamPiZfCRUw5rOut4wBMnB37WRvWY82dvHdew1eIiscuRhCe3HOZqEMs3Dnqsni6umvnD4GeeHwOBC84gaYk0nM0hGWwSWCNA+AZMTyqoCyAGTlhIsRE4LoOGIGbwI3GC743Dx+HAU5w8YW5O1u3DgksHs+bhQWDJoT5DHnHw6UlNs+cfHp/8zLBhVId84ZrZ08Etj3lzkCM/WGyG+N4W5YnT3u8HTDzhpwf8pg+SZrR2KBJ72hr0dAI1JtL0xYehAYAjbDbE0TdguFz8ibk1ckbFimFz6D6q8Og1C7sLSW+vQYa9GnCs6XHnB9+Az9eIixi2zck6/Tiuz+X6IgYOTGt1EPmLNZd/H7I64IgXy8eAJQYGYbOG3XchXyb56Cm7tTg+ztSFsXfh2ekGJ8AcKCtUcqTsJUSWnSDKTh9Jtg4OgUiw1wjrmgqb3rCuaeVvD7e85nBrVjj84ePp9mukgtPLI5bdYC9Wzjg28y23hsERU71q7zXN7hB8lPmeI44fga2/9S0dfDYjLnHlIx4XWL6r4NwX4w4Sxs4jjj9Mej2y74+Aw6u2+U/EcKBg9MRoij0xA0OMNCOzyRYPKx/+sIhGsSHFV/P4ubF0Wy+fhuLjhovb+fIf4PURtHnyEafxZliGhmheGPHjUz1mWHiyW7tQhK3BBlMtDp+fdfn4WRcHrz6Jsy7GBTDo1erAi+WDL+4kPf/2+liP5cWt2nDSR6KO7Oar/0aQxIYgwILSmUsmaBeClH0HZF3zEe8GWu9YRdiXY2MiCmP7sxM4YtnFkmLps3lS6NVRjJlOLQZ8AsdaLHs42eQyYGWPO0xY/si3WjVZ/vDN+irexa7HcXEhHZ7hDVJP+OJC5JdHPiMdO3y5q4+NLxw5+chp7k0kRv75VbDbwcEhEoHAEAIMxAAaCTOdP/wB5s0hns5trKnwuhxy8CUVVkNrMhufCrDmy07wgterna3C+bDZ4wCjOHno24sz4KsTb7XyKz9/h0DEqQmmsePZ46vB/KoLBmw69dsb/PeeP5+wfOGNn5rgilO3OZ5i2neGbCSOchF68QSnmRVLOHfjOLVnkwTIbh5Svfb6zKv4mgFDIiOdfDsn8hGVSw5ExcjBpjCHw8afjY6N8DfYxcBnK5dZDXy8Wq01mJ5O3eLiKFaeRrzCZRcHxxDrEsEJQyx/Nr7xFVtceOZ6K5dYQs8XpjhiH0b1yi1POeSDwZePeDpD7+Cywzl5ddkAMQtwkEZJXQhPeIEAFWvPVsK+kUpMJGPjj1zk6SoCRmsx8rLjwWYtDoYZD2v2KeB8wezLVX57PMMzq7Gc4ukSejzp4iEXffhqIvQERnhmucU7EDH2Lm++dEaY+YupX8VN0LoIYowOmr96qqEe8SmfmZ0fCVte47lqzl/WKDgiT+wLkCzSipYMEfp+WeS1a8Dg0wynpoQPy+WBTzoMB0Z64mswfzhmg8CCiwd/XPKphnE8X0Z++MkZP/YaVDzcHgAx9UDefTFgyCOnyy/OgCOmS2ItR7niLw4GaebHn0+8YJL04uh81zDzozPy2Ziw84lLdVz9JtBhkA5A4QK95jlrcAWVlN1IL17x6c1IsVfMxldkQyPZwrJGtljFWuOV2IuXg5jZYaU344SztTrwUpMc9PY1zlyTwhBvwBevlvby2suLTxdCrBFuPclfPdULt17xbw83sTbw5cPf2ugNzTe73IQfsRcfDzyt518H2whUgOSkAsfp/BlOH4CZr+SK9xEiCRyJkIQX2ZrRoWlkJMVoCMwaDGPHx1HO3aQ44Utg4sMngZ9cruFWN1t1y7PzdyHjx688uNY3GOqQHxc2c7Wa4bqAavZbzXoKOxEHC061iOMLowOUFw/6y1rYGmL4ENgw2eYNIHAXw6jACCjeX5J02P086bOYX08SYBhEHPCKtiY1wzoyfFwe/+YufDiKZQuj4vuFhmbJv5sGd4o6/6rUvkLjg0NrecrFV5144WHWA/FxEYsrPV70RvXBIGL51gd7/vZyyAm3Houhq9bnUJ6rBU4jP3vxziAuONDBYDfvGuIYl/ZX/+/hFIZAQApFVjM0GXnAErow5poPlPAlLkUCLzJ0cvCvCGvF94dBNZSfJ8SfAMrVz9V4GTVfztbxh13za4rc9HHlmz+dWvBUWzZrgx4Hg28YZpikOvERU75qhxnPLl3948seb3u8+dMZ1aEuPOCKx6HcfOIkll5s9YRVPvP818IFloCzJKTDFwhQYZrPV3I6l6RkZ8Dx62DSiYNdo2EQuRD1Y1nNUwS9GE+8vRziK3aCz79jqMh0fPYTJX6P/HHRTBcWdnXwTfjCw4ceR770Br1a6LboSzzoxdp7akm17Dj29nE0i1UPG75yGvgb+PPBAz/rLokYGIQu3Po5/zCEMYIcgHdLAdibXYASs4uhN2qSp7bfW/vGXVE+OvghKa48cotBzudhDe7CePJJF6e84ungWRtEvj2XD+9Efg0wHFRPLF8cYeETX3HVmI4PHDFxEkOqj63607O1ZmtvbeAE26GKJ/jBVi9b51GsvREejklc7K2LKd/VHwczCDSAOQBJ3Vg6iR1iB6Fx9IovMYxuIAw+/GuwdfgVCNcFUKx4vh1O/mKsCf9mMeGJZctuj5cazPzo8CJxti+fWHoibtuqgY1e3WolYugMnNjMMPQxXTzKEcd4iSe44kTSyQ9HLH92PbGn12szvfgdi4d4ej4w8TLPBQBoaECk/fgnQUXSA7cX6NAAdvsRIHz8consQtkdusTyiO2yuFhw6ORBsmLCEFsB5TXjnQ9cg47ASNLZV2d28eyahBN9XMLDi86+ywtLXWrGHw578XvP1x5G+eiqAT4sPHZ8eznE+TLO1z9cKYa/B5V00PxJfMz86at1dDYO1GFbcyoIOSIxuz3f7BJbp+NnlLh49gQ+Hw0Ta7gAEcaBLhz68MvVxVEsEUPYiRgDPyLeheWnDoKHPZ94Vw/eGloe+2qBa+0SiLeuJrj28bGGLX86cxjp+NCRaoAZXv5w9E0cO3w6fYCBPxtd+wFZv0SqJ82TBZjEEVZ8n9mAskU4YvzZKhARn/8Ia3TExRn8NbWZv5FfWPC7IJ6K8CvGnH4fqPgKF2/Nz6gObyA2OelwsSbiSRhmsvMXR0e6JOoTr7Hi2ItnszbjYo4fvbhy40Pyp986b9f9yzn5XW64elHczi+e3jnzY6Mz5vcAFA4CmMMvABEEEKZLrOkM9oqWwCAKtOZb7MaSk92sqeHxFQuTHS+CmyLo+bAZYhuw5DDEwVSwdZg9uWxhwRfT56Jcm6t8cUyvT/js2hwMXDbYYuQn9mz8HRiuHjJzOHyqWR4Sf1+oq5POg0ZgiIMjFncilwFbzf4xLB+XRC/4TT4OgCU0c7JGNMIc+dFnZyP8Ss6nb/7sGi8hnw5sgs433FqzDNh8YPAPG1m6ZjZDTAWyJ/yIw6A34qq+YsIx02lqHxPlqlZxdPw6ILO+9GcLfONZHjXBZSPiq7Onla08fGDA5sfHIHhWC3x7fjBxw8XaYfMrLr5xCBP+1BMwAE4VtpvAseTIFMyHiJEYlhtJDwtmZJvhFGPeeSuoXPKwmzUSPi5meBUpl0Evt4tniDX48RfLTicXf7ngW/sxlF/19SaALTYeuMAn9C4jH7Hwq7F89AZh5y+fmC5dNbPJy4YnfUM8fVzxUVtYamKv3nzl7I+/e0NU46lvlQhKLhhxwRUSgZrAZp0vu9gt+dJZI0FKbK5h8DRVAXRdBA1QnHiNag+Hn31xdHjAMnBjt84/H3hwSU3jK97HgNdrTWN3ucPjk6/cbLgQudhg8zPYzKSZDge54CfsYsO3DouO1Bt89JB+29hxN8eHPR7yEj6w528Eaa7kRuQCorMuYTcfADBJrMUhxLcG72Lo2ctjJuLDgGMdSQ0S063lb6/xfDsUekVms2aDY8hV7nQ1Nru8/NrHbe/piNzi5SBq25eErjzlll+M2Gz89NNejR4ifSQdavFyWO/+xHdz7KCrt77Y91bkE878nUBAkiMnkcFhF1kSwZGrcDqxcAhfYr91SBh8IyoPHUx6Arcne+fjq1EK8ZTiZ8hXoeU2w5WfT1zSs1mzkeL4eV2Gl62Dojf23kU1rtUD8XKpCbZ1vO1hye2js0ubXg59ILCLg0F2XcXwM6oTxvaNC9xZ+xLDuduH6AZGELjmsxH+1gCsjYiys3WwYtm9ZRymPPDFwrY2k2L24fMn+cCj88T5oteXMD4K5wfHgcCuceLkZNMUa3xwo4sLnHzN4vnBqlb1+b+pw6H/jgC/8pZTDJ1csMRvXnR9Njt8/rDxq95dV3zg8bMXYy6HfXa52WDRmdVCL378unUBIZ9jOiSIQIO+5gEhDo0OngKM/M32yGhCMdaIsFuLZ7N2yOWA78mnh5Eeprz40hvwDL7VsbnvfOxqCbd67a0JzNbtxfGBxe4SGuWthjjtHHHBHc6+LPzhlkdfSP2CY9j3xtEXcYS/S2kPV5/o8HIu9nGRm9/8x6IpySgu/ri3CyIpeyD8K1QxkhB24BpSAfb04g1ilpceTs1UEPJ0DcX2GcvGp582+LDJZQ0zDHlwY4sLHYwOkH+xeBI41u1xpRNj0PsvhPqDql7dfOhh1U++5VUnCQsvfmLiwoYbnXwN+/zo9GrzkcMbtj7AMOIEv7rCzD7/x5HAORMGATXOTCJnNiTlZ62Qbhi9JAquaHZ+9NnDMfODZbavAXIbinMJ8qlxZvZ4wLaPi7eDjwnioGqiPGwGDLzEsFcXXXngx5vOnuiVvZE4BHtvMDMcoi5xcrigOMSnnPnzpUsvXiw7G8zqsVZzvmriixuRQ0z5+ZF0J1+m/PwLnETSXFDJCwQiMbs4BfGpWDMiNSh9PuaIwXKjzRUYD3708PnDs6Zj42/WDFzYNMO6nJsj3N5UsNj2EAuzC8nG32/RHKw84vjVC/ldUJxcIgcvxoWtRv72cMUTaxx7asvLRsefDqYcMPMxE7h85ZEXX3s56Nj9uw3cvK3o5DTLP/XZANxPGHC6EnNM1xoQEH7I8WWzNwhsOjYiBhlxdC4JO72RH11YHX5Y/Fxa+55avrDo+PNRPH1fsuSnMzQIB7Oc+NLHQRws0mHiTceXn3h7vr2h/J7eJeEbHru9mVi3Lz4u9g6ww7b3BjM7QLnjhoOaDYff5bTmCxNWw16/YMCzhzX/x5GUGqEQRo3xGS7JvokVX6MQHZCL38vnp2C+Ci4h/GLo7RP6BB97XMz5aWwczfxqKL8w6Ek4zXFrrgZxOOJryFO8pspl8NuXik9xLqa1XNWNm0sJoxywHQw/9cHFh1jXez72fOBa40vgssPqQeDDFxY9Dt7u+OJAX3x9OvkrVxIKNjhJJAGC1nQCrAm9wYdIxM6veHbrbXdbvZLgINTh8mutKDzgIWtPuuGKrUh5jXKaK0yOOMKABVc8vTgzf3Ww0dU4/uxw5BPHz946v7jjJ8ZDBNMoXky80slHsulNWHh48vNlEy8vEYtTF8v5ic3W2YmBz59v9bFX//wm0KZLwGhIKjDiZgW2r9kaYd0Ng8WPPgKIwSyev2LYK8663OEhb9A7RA0pjzU/syFv3KYT5+Zmk1s9Yqz5w8azwxRvhAuny+bpFtermA9eHbh66hcbqflyJeWW0xqGWDyJmT6uXV5Y/GDH3dO9+dKLNeAT/PmwiYVB4nT1XwkTxLGGcUYiIDZCzwcx6xpUEsBur7/m7VL5cQl5MXxrkrkDZy93OPA3ds0cEuf/kcuAzU5qgHXFwuwNoh6HKc6rUZxhT9Rkz5+Ei4/LCtOosT0osPCwL04sPDm3np3Oxyt9r+hdD7s8Pbmw03UG9VKcGukJX3v56wE9v3ya5+8DVKRABsDWVRO/2gAAAghJREFUDsievYNBoibnC7wnBGH+PvMkl5Q/HVxr2Ia9RsNOx2/n1mgil0HyrfD42qeDk8CwFy9Wvg6g5uNVLHv1plPPxnDJYegRzHLzCZ8trB4YXPl4OOqPPT0pnz7SGfjLhX8XT046M5GHvXzxjd+2b78Tx54OySumQPuISNgB0vExrIsDrqmG2+1HKOIbMpt4c0NB5dIIwkZfU0e5fnZVDFsN0EgxOFSoPTuBa5TTf9nMq7u8u8nx499hiLN3iHIQMfZwcLWWT/6424u170AcLL04a33iAzfsapCfiOdD8pUvrrgUw25UMwy4Zv7pYdHPfyxasGbkbF3CcTp/86QrWaAldIl63ZTMBWBXgMRi7OXj0wGEyy4GUVg13b4mFg+D3R6ON5DG0nm66IyaB7d8YmHyl0deayI+/tbqTV8ec0+oA5SDwHSwMH0+6wl+cFpvbLb6KD9eYvnga+Zjrl55fHT4Mk1cLBhykGY6Izz4cAx6dfE9+T9BUkBFKE4hEnImdPaKJhG3zq8G1rCeFkngZOePgAPLB0lx9F6t/B0iTorVVIVqSvn54CWO3d9rsPclrWLtYeAgFhadWLms6R2OmmGZDTZcxZpJl8wez/DNRh8LfbbLDZN/+Pzw00sccCf09okYe8O6i8QujxywxRE14SqnGHtxe8ahHPKr/bpnef2//J/twP8CXoHPHNvsA2MAAAAASUVORK5CYII=;fontSize=18;fontStyle=0" parent="1" vertex="1">
          <mxGeometry x="62" y="320" width="98" height="99" as="geometry" />
        </mxCell>
        <mxCell id="54kXhM8Bq98e1mjiQmao-137" value="&lt;span style=&quot;font-size: 18px;&quot;&gt;&lt;font style=&quot;font-size: 18px;&quot;&gt;Input&lt;br style=&quot;font-size: 18px;&quot;&gt;&lt;/font&gt;size=128*128*3&lt;br style=&quot;font-size: 18px;&quot;&gt;&lt;/span&gt;&lt;br style=&quot;font-size: 18px;&quot;&gt;" style="text;html=1;strokeColor=none;fillColor=none;align=center;verticalAlign=middle;whiteSpace=wrap;rounded=0;fontFamily=Times New Roman;fontColor=#7F00FF;fontSize=18;fontStyle=0" parent="1" vertex="1">
          <mxGeometry x="89" y="459" width="40" height="20" as="geometry" />
        </mxCell>
        <mxCell id="PQmqYWa-oiQkApIzyspA-9" value="" style="endArrow=classic;html=1;endSize=4;fontSize=18;fontStyle=0" parent="1" edge="1">
          <mxGeometry width="50" height="50" relative="1" as="geometry">
            <mxPoint x="219.5" y="502" as="sourcePoint" />
            <mxPoint x="219.5" y="463" as="targetPoint" />
          </mxGeometry>
        </mxCell>
        <mxCell id="PQmqYWa-oiQkApIzyspA-14" value="" style="endArrow=classic;html=1;entryX=0;entryY=0;entryDx=90;entryDy=34;entryPerimeter=0;endSize=3;fontSize=18;fontStyle=0" parent="1" edge="1">
          <mxGeometry width="50" height="50" relative="1" as="geometry">
            <mxPoint x="565" y="432" as="sourcePoint" />
            <mxPoint x="565" y="404.8888888888889" as="targetPoint" />
          </mxGeometry>
        </mxCell>
        <mxCell id="zKa-LlwlvH1xGnG0WNw--2" value="" style="shape=flexArrow;endArrow=classic;html=1;endWidth=15.428571428571429;endSize=5;startWidth=15.428571428571429;startSize=5;width=4;fontSize=18;fontStyle=0" parent="1" edge="1">
          <mxGeometry width="50" height="50" relative="1" as="geometry">
            <mxPoint x="600" y="349.5" as="sourcePoint" />
            <mxPoint x="634" y="350" as="targetPoint" />
          </mxGeometry>
        </mxCell>
        <mxCell id="zKa-LlwlvH1xGnG0WNw--3" value="" style="shape=flexArrow;endArrow=classic;html=1;endWidth=15.428571428571429;endSize=5;startWidth=15.428571428571429;startSize=5;width=4;fontSize=18;fontStyle=0" parent="1" edge="1">
          <mxGeometry width="50" height="50" relative="1" as="geometry">
            <mxPoint x="167" y="367" as="sourcePoint" />
            <mxPoint x="201" y="367.5" as="targetPoint" />
          </mxGeometry>
        </mxCell>
        <mxCell id="zKa-LlwlvH1xGnG0WNw--6" value="" style="endArrow=classic;html=1;entryX=0;entryY=0;entryDx=90;entryDy=34;entryPerimeter=0;endSize=3;fontSize=18;fontStyle=0" parent="1" edge="1">
          <mxGeometry width="50" height="50" relative="1" as="geometry">
            <mxPoint x="413.5" y="432" as="sourcePoint" />
            <mxPoint x="413.5" y="404.3888888888889" as="targetPoint" />
          </mxGeometry>
        </mxCell>
        <mxCell id="zKa-LlwlvH1xGnG0WNw--7" value="" style="endArrow=classic;html=1;entryX=0;entryY=0;entryDx=90;entryDy=34;entryPerimeter=0;endSize=3;fontSize=18;fontStyle=0" parent="1" edge="1">
          <mxGeometry width="50" height="50" relative="1" as="geometry">
            <mxPoint x="293.5" y="432" as="sourcePoint" />
            <mxPoint x="293.5" y="404.3888888888889" as="targetPoint" />
          </mxGeometry>
        </mxCell>
        <mxCell id="zKa-LlwlvH1xGnG0WNw--8" value="&lt;span style=&quot;font-size: 18px&quot;&gt;&lt;font color=&quot;#7f00ff&quot; style=&quot;font-size: 18px&quot;&gt;depth=128&lt;br&gt;&lt;/font&gt;&lt;/span&gt;&lt;span style=&quot;color: rgb(127 , 0 , 255)&quot;&gt;size=64*64&lt;/span&gt;&lt;br style=&quot;color: rgb(127 , 0 , 255)&quot;&gt;&lt;span style=&quot;font-size: 18px&quot;&gt;&lt;font color=&quot;#7f00ff&quot; style=&quot;font-size: 18px&quot;&gt;3*3 conv&lt;br style=&quot;font-size: 18px&quot;&gt;conv3&lt;br style=&quot;font-size: 18px&quot;&gt;conv4&lt;/font&gt;&lt;/span&gt;" style="text;html=1;strokeColor=none;fillColor=none;align=center;verticalAlign=middle;whiteSpace=wrap;rounded=0;fontFamily=Times New Roman;fontSize=18;fontStyle=0" parent="1" vertex="1">
          <mxGeometry x="307" y="504" width="80" height="100" as="geometry" />
        </mxCell>
        <mxCell id="zKa-LlwlvH1xGnG0WNw--9" value="&lt;span style=&quot;font-size: 18px&quot;&gt;&lt;font color=&quot;#7f00ff&quot; style=&quot;font-size: 18px&quot;&gt;depth=256&lt;br&gt;&lt;/font&gt;&lt;/span&gt;&lt;span style=&quot;color: rgb(127 , 0 , 255)&quot;&gt;size=32*32&lt;/span&gt;&lt;br style=&quot;color: rgb(127 , 0 , 255)&quot;&gt;&lt;span style=&quot;font-size: 18px&quot;&gt;&lt;font color=&quot;#7f00ff&quot; style=&quot;font-size: 18px&quot;&gt;3*3 conv&lt;br style=&quot;font-size: 18px&quot;&gt;conv5&lt;br style=&quot;font-size: 18px&quot;&gt;conv6&lt;/font&gt;&lt;/span&gt;" style="text;html=1;strokeColor=none;fillColor=none;align=center;verticalAlign=middle;whiteSpace=wrap;rounded=0;fontFamily=Times New Roman;fontSize=18;fontStyle=0" parent="1" vertex="1">
          <mxGeometry x="445" y="504" width="80" height="98" as="geometry" />
        </mxCell>
        <mxCell id="0IY04dLV6YsPc6jq4Drd-1" value="" style="endArrow=classic;html=1;endSize=4;exitX=0.5;exitY=0;exitDx=0;exitDy=0;fontSize=18;fontStyle=0" parent="1" edge="1">
          <mxGeometry width="50" height="50" relative="1" as="geometry">
            <mxPoint x="641" y="502" as="sourcePoint" />
            <mxPoint x="641" y="463" as="targetPoint" />
          </mxGeometry>
        </mxCell>
        <mxCell id="0IY04dLV6YsPc6jq4Drd-4" value="" style="endArrow=classic;html=1;endSize=4;fontSize=18;fontStyle=0" parent="1" edge="1">
          <mxGeometry width="50" height="50" relative="1" as="geometry">
            <mxPoint x="345" y="502" as="sourcePoint" />
            <mxPoint x="345" y="463" as="targetPoint" />
          </mxGeometry>
        </mxCell>
        <mxCell id="0IY04dLV6YsPc6jq4Drd-5" value="" style="endArrow=classic;html=1;endSize=4;fontSize=18;fontStyle=0" parent="1" edge="1">
          <mxGeometry width="50" height="50" relative="1" as="geometry">
            <mxPoint x="486.5" y="502" as="sourcePoint" />
            <mxPoint x="486.5" y="463" as="targetPoint" />
          </mxGeometry>
        </mxCell>
        <mxCell id="0IY04dLV6YsPc6jq4Drd-11" value="&lt;font color=&quot;#7f00ff&quot; face=&quot;Times New Roman&quot; style=&quot;font-size: 18px&quot;&gt;&lt;span style=&quot;font-size: 18px&quot;&gt;&lt;b&gt;output&lt;br style=&quot;font-size: 18px&quot;&gt;target type&lt;/b&gt;&lt;/span&gt;&lt;/font&gt;" style="text;html=1;strokeColor=none;fillColor=none;align=center;verticalAlign=middle;whiteSpace=wrap;rounded=0;fontSize=18;fontStyle=0" parent="1" vertex="1">
          <mxGeometry x="648" y="316.5" width="70" height="69" as="geometry" />
        </mxCell>
        <mxCell id="FN0oJkP01dZrmvueaAVd-175" value="" style="shape=cube;whiteSpace=wrap;html=1;boundedLbl=1;backgroundOutline=1;darkOpacity=0.05;darkOpacity2=0.1;fillColor=#dae8fc;strokeColor=#6c8ebf;size=28;direction=south;fontSize=18;fontStyle=0" parent="1" vertex="1">
          <mxGeometry x="297" y="815" width="37" height="90" as="geometry" />
        </mxCell>
        <mxCell id="FN0oJkP01dZrmvueaAVd-176" value="" style="shape=cube;whiteSpace=wrap;html=1;boundedLbl=1;backgroundOutline=1;darkOpacity=0.05;darkOpacity2=0.1;fillColor=#fff2cc;strokeColor=#d6b656;size=41;direction=south;fontSize=18;fontStyle=0" parent="1" vertex="1">
          <mxGeometry x="232" y="792" width="50" height="150" as="geometry" />
        </mxCell>
        <mxCell id="FN0oJkP01dZrmvueaAVd-177" value="" style="shape=cube;whiteSpace=wrap;html=1;boundedLbl=1;backgroundOutline=1;darkOpacity=0.05;darkOpacity2=0.1;fillColor=#fff2cc;strokeColor=#d6b656;size=25;direction=south;fontSize=18;fontStyle=0" parent="1" vertex="1">
          <mxGeometry x="347" y="815" width="60" height="90" as="geometry" />
        </mxCell>
        <mxCell id="FN0oJkP01dZrmvueaAVd-178" value="" style="shape=cube;whiteSpace=wrap;html=1;boundedLbl=1;backgroundOutline=1;darkOpacity=0.05;darkOpacity2=0.1;fillColor=#dae8fc;strokeColor=#6c8ebf;size=10;direction=south;fontSize=18;fontStyle=0" parent="1" vertex="1">
          <mxGeometry x="421" y="831" width="40" height="50" as="geometry" />
        </mxCell>
        <mxCell id="FN0oJkP01dZrmvueaAVd-179" value="" style="shape=cube;whiteSpace=wrap;html=1;boundedLbl=1;backgroundOutline=1;darkOpacity=0.05;darkOpacity2=0.1;fillColor=#fff2cc;strokeColor=#d6b656;size=12;direction=south;fontSize=18;fontStyle=0" parent="1" vertex="1">
          <mxGeometry x="472" y="831" width="70" height="50" as="geometry" />
        </mxCell>
        <mxCell id="FN0oJkP01dZrmvueaAVd-180" value="" style="shape=cube;whiteSpace=wrap;html=1;boundedLbl=1;backgroundOutline=1;darkOpacity=0.05;darkOpacity2=0.1;fillColor=#dae8fc;strokeColor=#6c8ebf;size=4;direction=south;fontSize=18;fontStyle=0" parent="1" vertex="1">
          <mxGeometry x="557" y="843" width="70" height="20" as="geometry" />
        </mxCell>
        <mxCell id="FN0oJkP01dZrmvueaAVd-181" value="" style="shape=cube;whiteSpace=wrap;html=1;boundedLbl=1;backgroundOutline=1;darkOpacity=0.05;darkOpacity2=0.1;fillColor=#d5e8d4;strokeColor=#82b366;size=3;direction=south;fontSize=18;fontStyle=0" parent="1" vertex="1">
          <mxGeometry x="665" y="780" width="10" height="150" as="geometry" />
        </mxCell>
        <mxCell id="FN0oJkP01dZrmvueaAVd-182" value="" style="shape=cube;whiteSpace=wrap;html=1;boundedLbl=1;backgroundOutline=1;darkOpacity=0.05;darkOpacity2=0.1;fillColor=#d5e8d4;strokeColor=#82b366;size=3;direction=south;fontSize=18;fontStyle=0" parent="1" vertex="1">
          <mxGeometry x="722" y="838" width="10" height="27" as="geometry" />
        </mxCell>
        <mxCell id="FN0oJkP01dZrmvueaAVd-183" value="" style="shape=cube;whiteSpace=wrap;html=1;boundedLbl=1;backgroundOutline=1;darkOpacity=0.05;darkOpacity2=0.1;fillColor=#f8cecc;strokeColor=#b85450;size=9;direction=south;fontSize=18;fontStyle=0" parent="1" vertex="1">
          <mxGeometry x="261" y="851" width="8" height="35" as="geometry" />
        </mxCell>
        <mxCell id="FN0oJkP01dZrmvueaAVd-184" value="" style="endArrow=none;html=1;exitX=0;exitY=0;exitDx=8;exitDy=8;exitPerimeter=0;fontSize=18;entryX=0.581;entryY=1.003;entryDx=0;entryDy=0;entryPerimeter=0;fontStyle=0" parent="1" source="FN0oJkP01dZrmvueaAVd-183" target="FN0oJkP01dZrmvueaAVd-175" edge="1">
          <mxGeometry width="50" height="50" relative="1" as="geometry">
            <mxPoint x="357" y="1002" as="sourcePoint" />
            <mxPoint x="296" y="871" as="targetPoint" />
          </mxGeometry>
        </mxCell>
        <mxCell id="FN0oJkP01dZrmvueaAVd-185" value="" style="endArrow=none;html=1;exitX=0;exitY=0;exitDx=0;exitDy=0;exitPerimeter=0;entryX=0.576;entryY=1.014;entryDx=0;entryDy=0;entryPerimeter=0;fontSize=18;fontStyle=0" parent="1" source="FN0oJkP01dZrmvueaAVd-183" target="FN0oJkP01dZrmvueaAVd-175" edge="1">
          <mxGeometry width="50" height="50" relative="1" as="geometry">
            <mxPoint x="307" y="972" as="sourcePoint" />
            <mxPoint x="357" y="922" as="targetPoint" />
          </mxGeometry>
        </mxCell>
        <mxCell id="FN0oJkP01dZrmvueaAVd-186" value="" style="endArrow=none;html=1;entryX=0;entryY=0;entryDx=35;entryDy=8;entryPerimeter=0;fontSize=18;exitX=0.583;exitY=1.028;exitDx=0;exitDy=0;exitPerimeter=0;fontStyle=0" parent="1" source="FN0oJkP01dZrmvueaAVd-175" target="FN0oJkP01dZrmvueaAVd-183" edge="1">
          <mxGeometry width="50" height="50" relative="1" as="geometry">
            <mxPoint x="296" y="871" as="sourcePoint" />
            <mxPoint x="277" y="1022" as="targetPoint" />
          </mxGeometry>
        </mxCell>
        <mxCell id="FN0oJkP01dZrmvueaAVd-187" value="" style="endArrow=none;html=1;entryX=0;entryY=0;entryDx=27;entryDy=0;entryPerimeter=0;exitX=0.579;exitY=1.005;exitDx=0;exitDy=0;exitPerimeter=0;fontSize=18;fontStyle=0" parent="1" source="FN0oJkP01dZrmvueaAVd-175" target="FN0oJkP01dZrmvueaAVd-183" edge="1">
          <mxGeometry width="50" height="50" relative="1" as="geometry">
            <mxPoint x="297" y="874" as="sourcePoint" />
            <mxPoint x="307" y="882" as="targetPoint" />
          </mxGeometry>
        </mxCell>
        <mxCell id="FN0oJkP01dZrmvueaAVd-188" value="" style="shape=cube;whiteSpace=wrap;html=1;boundedLbl=1;backgroundOutline=1;darkOpacity=0.05;darkOpacity2=0.1;fillColor=#f8cecc;strokeColor=#b85450;size=9;direction=south;fontSize=18;fontStyle=0" parent="1" vertex="1">
          <mxGeometry x="318" y="849" width="8" height="32" as="geometry" />
        </mxCell>
        <mxCell id="FN0oJkP01dZrmvueaAVd-189" value="" style="endArrow=none;html=1;exitX=0;exitY=0;exitDx=0;exitDy=0;exitPerimeter=0;entryX=0.534;entryY=0.993;entryDx=0;entryDy=0;entryPerimeter=0;fontSize=18;fontStyle=0" parent="1" source="FN0oJkP01dZrmvueaAVd-188" target="FN0oJkP01dZrmvueaAVd-177" edge="1">
          <mxGeometry width="50" height="50" relative="1" as="geometry">
            <mxPoint x="307" y="902" as="sourcePoint" />
            <mxPoint x="357" y="852" as="targetPoint" />
          </mxGeometry>
        </mxCell>
        <mxCell id="FN0oJkP01dZrmvueaAVd-190" value="" style="endArrow=none;html=1;exitX=0;exitY=0;exitDx=8;exitDy=8;exitPerimeter=0;entryX=0.532;entryY=1.004;entryDx=0;entryDy=0;entryPerimeter=0;fontSize=18;fontStyle=0" parent="1" source="FN0oJkP01dZrmvueaAVd-188" target="FN0oJkP01dZrmvueaAVd-177" edge="1">
          <mxGeometry width="50" height="50" relative="1" as="geometry">
            <mxPoint x="317" y="882" as="sourcePoint" />
            <mxPoint x="346" y="868" as="targetPoint" />
          </mxGeometry>
        </mxCell>
        <mxCell id="FN0oJkP01dZrmvueaAVd-191" value="" style="endArrow=none;html=1;exitX=0;exitY=0;exitDx=24;exitDy=0;exitPerimeter=0;entryX=0.535;entryY=0.99;entryDx=0;entryDy=0;entryPerimeter=0;fontSize=18;fontStyle=0" parent="1" source="FN0oJkP01dZrmvueaAVd-188" target="FN0oJkP01dZrmvueaAVd-177" edge="1">
          <mxGeometry width="50" height="50" relative="1" as="geometry">
            <mxPoint x="317" y="922" as="sourcePoint" />
            <mxPoint x="347" y="860" as="targetPoint" />
          </mxGeometry>
        </mxCell>
        <mxCell id="FN0oJkP01dZrmvueaAVd-192" value="" style="endArrow=none;html=1;exitX=0.981;exitY=0.985;exitDx=0;exitDy=0;exitPerimeter=0;entryX=0.538;entryY=0.994;entryDx=0;entryDy=0;entryPerimeter=0;fontSize=18;fontStyle=0" parent="1" source="FN0oJkP01dZrmvueaAVd-188" target="FN0oJkP01dZrmvueaAVd-177" edge="1">
          <mxGeometry width="50" height="50" relative="1" as="geometry">
            <mxPoint x="317" y="922" as="sourcePoint" />
            <mxPoint x="346" y="870" as="targetPoint" />
          </mxGeometry>
        </mxCell>
        <mxCell id="FN0oJkP01dZrmvueaAVd-193" value="" style="shape=cube;whiteSpace=wrap;html=1;boundedLbl=1;backgroundOutline=1;darkOpacity=0.05;darkOpacity2=0.1;fillColor=#f8cecc;strokeColor=#b85450;size=9;direction=south;fontSize=18;fontStyle=0" parent="1" vertex="1">
          <mxGeometry x="392" y="845" width="8" height="30" as="geometry" />
        </mxCell>
        <mxCell id="FN0oJkP01dZrmvueaAVd-194" value="" style="endArrow=none;html=1;exitX=0;exitY=0;exitDx=8;exitDy=8;exitPerimeter=0;entryX=0.548;entryY=1;entryDx=0;entryDy=0;entryPerimeter=0;fontSize=18;fontStyle=0" parent="1" source="FN0oJkP01dZrmvueaAVd-193" target="FN0oJkP01dZrmvueaAVd-178" edge="1">
          <mxGeometry width="50" height="50" relative="1" as="geometry">
            <mxPoint x="387" y="902" as="sourcePoint" />
            <mxPoint x="437" y="852" as="targetPoint" />
          </mxGeometry>
        </mxCell>
        <mxCell id="FN0oJkP01dZrmvueaAVd-195" value="" style="endArrow=none;html=1;exitX=0;exitY=0;exitDx=0;exitDy=0;exitPerimeter=0;entryX=0.549;entryY=1;entryDx=0;entryDy=0;entryPerimeter=0;fontSize=18;fontStyle=0" parent="1" source="FN0oJkP01dZrmvueaAVd-193" target="FN0oJkP01dZrmvueaAVd-178" edge="1">
          <mxGeometry width="50" height="50" relative="1" as="geometry">
            <mxPoint x="397" y="912" as="sourcePoint" />
            <mxPoint x="421" y="857" as="targetPoint" />
          </mxGeometry>
        </mxCell>
        <mxCell id="FN0oJkP01dZrmvueaAVd-196" value="" style="endArrow=none;html=1;exitX=0;exitY=0;exitDx=22;exitDy=0;exitPerimeter=0;entryX=0.548;entryY=1.009;entryDx=0;entryDy=0;entryPerimeter=0;fontSize=18;fontStyle=0" parent="1" source="FN0oJkP01dZrmvueaAVd-193" target="FN0oJkP01dZrmvueaAVd-178" edge="1">
          <mxGeometry width="50" height="50" relative="1" as="geometry">
            <mxPoint x="397" y="912" as="sourcePoint" />
            <mxPoint x="447" y="862" as="targetPoint" />
          </mxGeometry>
        </mxCell>
        <mxCell id="FN0oJkP01dZrmvueaAVd-197" value="" style="endArrow=none;html=1;exitX=0;exitY=0;exitDx=30;exitDy=8;exitPerimeter=0;entryX=0.555;entryY=1.006;entryDx=0;entryDy=0;entryPerimeter=0;fontSize=18;fontStyle=0" parent="1" source="FN0oJkP01dZrmvueaAVd-193" target="FN0oJkP01dZrmvueaAVd-178" edge="1">
          <mxGeometry width="50" height="50" relative="1" as="geometry">
            <mxPoint x="387" y="912" as="sourcePoint" />
            <mxPoint x="437" y="862" as="targetPoint" />
          </mxGeometry>
        </mxCell>
        <mxCell id="FN0oJkP01dZrmvueaAVd-198" value="" style="shape=cube;whiteSpace=wrap;html=1;boundedLbl=1;backgroundOutline=1;darkOpacity=0.05;darkOpacity2=0.1;fillColor=#f8cecc;strokeColor=#b85450;size=9;direction=south;fontSize=18;fontStyle=0" parent="1" vertex="1">
          <mxGeometry x="454" y="851" width="5" height="15" as="geometry" />
        </mxCell>
        <mxCell id="FN0oJkP01dZrmvueaAVd-199" value="" style="endArrow=none;html=1;exitX=0;exitY=0;exitDx=5;exitDy=5;exitPerimeter=0;fontSize=18;entryX=0.527;entryY=1;entryDx=0;entryDy=0;entryPerimeter=0;fontStyle=0" parent="1" source="FN0oJkP01dZrmvueaAVd-198" target="FN0oJkP01dZrmvueaAVd-179" edge="1">
          <mxGeometry width="50" height="50" relative="1" as="geometry">
            <mxPoint x="454.1724137931035" y="853.8965517241379" as="sourcePoint" />
            <mxPoint x="475" y="859" as="targetPoint" />
          </mxGeometry>
        </mxCell>
        <mxCell id="FN0oJkP01dZrmvueaAVd-200" value="" style="endArrow=none;html=1;exitX=0.025;exitY=0.043;exitDx=0;exitDy=0;exitPerimeter=0;entryX=0.529;entryY=1.002;entryDx=0;entryDy=0;entryPerimeter=0;fontSize=18;fontStyle=0" parent="1" source="FN0oJkP01dZrmvueaAVd-198" target="FN0oJkP01dZrmvueaAVd-179" edge="1">
          <mxGeometry width="50" height="50" relative="1" as="geometry">
            <mxPoint x="467" y="922" as="sourcePoint" />
            <mxPoint x="475.0446927374302" y="853.2234636871508" as="targetPoint" />
          </mxGeometry>
        </mxCell>
        <mxCell id="FN0oJkP01dZrmvueaAVd-201" value="" style="endArrow=none;html=1;exitX=0;exitY=0;exitDx=10;exitDy=0;exitPerimeter=0;fontSize=18;entryX=0.525;entryY=1.002;entryDx=0;entryDy=0;entryPerimeter=0;fontStyle=0" parent="1" source="FN0oJkP01dZrmvueaAVd-198" target="FN0oJkP01dZrmvueaAVd-179" edge="1">
          <mxGeometry width="50" height="50" relative="1" as="geometry">
            <mxPoint x="447" y="922" as="sourcePoint" />
            <mxPoint x="475" y="860" as="targetPoint" />
          </mxGeometry>
        </mxCell>
        <mxCell id="FN0oJkP01dZrmvueaAVd-202" value="" style="endArrow=none;html=1;exitX=0;exitY=0;exitDx=15;exitDy=5;exitPerimeter=0;fontSize=18;entryX=0.526;entryY=1.001;entryDx=0;entryDy=0;entryPerimeter=0;fontStyle=0" parent="1" source="FN0oJkP01dZrmvueaAVd-198" target="FN0oJkP01dZrmvueaAVd-179" edge="1">
          <mxGeometry width="50" height="50" relative="1" as="geometry">
            <mxPoint x="477" y="912" as="sourcePoint" />
            <mxPoint x="475" y="860" as="targetPoint" />
          </mxGeometry>
        </mxCell>
        <mxCell id="FN0oJkP01dZrmvueaAVd-203" value="" style="shape=cube;whiteSpace=wrap;html=1;boundedLbl=1;backgroundOutline=1;darkOpacity=0.05;darkOpacity2=0.1;fillColor=#f8cecc;strokeColor=#b85450;size=9;direction=south;fontSize=18;fontStyle=0" parent="1" vertex="1">
          <mxGeometry x="538" y="847" width="5" height="15" as="geometry" />
        </mxCell>
        <mxCell id="FN0oJkP01dZrmvueaAVd-204" value="" style="endArrow=none;html=1;exitX=0;exitY=0;exitDx=5;exitDy=5;exitPerimeter=0;entryX=0.529;entryY=1.005;entryDx=0;entryDy=0;entryPerimeter=0;fontSize=18;fontStyle=0" parent="1" source="FN0oJkP01dZrmvueaAVd-203" target="FN0oJkP01dZrmvueaAVd-180" edge="1">
          <mxGeometry width="50" height="50" relative="1" as="geometry">
            <mxPoint x="577" y="892" as="sourcePoint" />
            <mxPoint x="557" y="854" as="targetPoint" />
          </mxGeometry>
        </mxCell>
        <mxCell id="FN0oJkP01dZrmvueaAVd-205" value="" style="endArrow=none;html=1;exitX=0;exitY=0;exitDx=0;exitDy=0;exitPerimeter=0;entryX=0.52;entryY=1.007;entryDx=0;entryDy=0;entryPerimeter=0;fontSize=18;fontStyle=0" parent="1" source="FN0oJkP01dZrmvueaAVd-203" target="FN0oJkP01dZrmvueaAVd-180" edge="1">
          <mxGeometry width="50" height="50" relative="1" as="geometry">
            <mxPoint x="537" y="913" as="sourcePoint" />
            <mxPoint x="559" y="852" as="targetPoint" />
          </mxGeometry>
        </mxCell>
        <mxCell id="FN0oJkP01dZrmvueaAVd-206" value="" style="endArrow=none;html=1;exitX=0;exitY=0;exitDx=14.999999999999998;exitDy=5;exitPerimeter=0;entryX=0.526;entryY=1.004;entryDx=0;entryDy=0;entryPerimeter=0;fontSize=18;fontStyle=0" parent="1" source="FN0oJkP01dZrmvueaAVd-203" target="FN0oJkP01dZrmvueaAVd-180" edge="1">
          <mxGeometry width="50" height="50" relative="1" as="geometry">
            <mxPoint x="537" y="883" as="sourcePoint" />
            <mxPoint x="557" y="854" as="targetPoint" />
          </mxGeometry>
        </mxCell>
        <mxCell id="FN0oJkP01dZrmvueaAVd-207" value="" style="endArrow=none;html=1;exitX=0;exitY=0;exitDx=9.999999999999998;exitDy=0;exitPerimeter=0;entryX=0.512;entryY=1.004;entryDx=0;entryDy=0;entryPerimeter=0;fontSize=18;fontStyle=0" parent="1" source="FN0oJkP01dZrmvueaAVd-203" target="FN0oJkP01dZrmvueaAVd-180" edge="1">
          <mxGeometry width="50" height="50" relative="1" as="geometry">
            <mxPoint x="547" y="873" as="sourcePoint" />
            <mxPoint x="559" y="852" as="targetPoint" />
            <Array as="points" />
          </mxGeometry>
        </mxCell>
        <mxCell id="FN0oJkP01dZrmvueaAVd-208" value="" style="shape=flexArrow;endArrow=classic;html=1;endWidth=15.428571428571429;endSize=5;startWidth=15.428571428571429;startSize=5;width=4;fontSize=18;fontStyle=0" parent="1" edge="1">
          <mxGeometry width="50" height="50" relative="1" as="geometry">
            <mxPoint x="679" y="852" as="sourcePoint" />
            <mxPoint x="713" y="852.5" as="targetPoint" />
          </mxGeometry>
        </mxCell>
        <mxCell id="FN0oJkP01dZrmvueaAVd-209" value="&lt;font color=&quot;#7f00ff&quot; style=&quot;font-size: 18px;&quot;&gt;&lt;span style=&quot;font-size: 18px;&quot;&gt;depth=64&lt;br style=&quot;font-size: 18px;&quot;&gt;3*3 conv&lt;br style=&quot;font-size: 18px;&quot;&gt;size=128*128&lt;br style=&quot;font-size: 18px;&quot;&gt;conv1&lt;br style=&quot;font-size: 18px;&quot;&gt;conv2&lt;/span&gt;&lt;/font&gt;&lt;br style=&quot;font-size: 18px;&quot;&gt;" style="text;html=1;strokeColor=none;fillColor=none;align=center;verticalAlign=middle;whiteSpace=wrap;rounded=0;fontFamily=Times New Roman;fontSize=18;fontStyle=0" parent="1" vertex="1">
          <mxGeometry x="217" y="1004" width="80" height="68" as="geometry" />
        </mxCell>
        <mxCell id="FN0oJkP01dZrmvueaAVd-210" value="&lt;font color=&quot;#7f00ff&quot; style=&quot;font-size: 18px&quot;&gt;&lt;span style=&quot;font-size: 18px&quot;&gt;maxpool&lt;br&gt;2*2&lt;br style=&quot;font-size: 18px&quot;&gt;&lt;/span&gt;&lt;/font&gt;" style="text;html=1;strokeColor=none;fillColor=none;align=center;verticalAlign=middle;whiteSpace=wrap;rounded=0;fontFamily=Times New Roman;fontSize=18;fontStyle=0" parent="1" vertex="1">
          <mxGeometry x="293" y="942" width="58" height="20" as="geometry" />
        </mxCell>
        <mxCell id="FN0oJkP01dZrmvueaAVd-211" value="&lt;font color=&quot;#7f00ff&quot; style=&quot;font-size: 18px;&quot;&gt;&lt;span style=&quot;font-size: 18px;&quot;&gt;size=65536&lt;br style=&quot;font-size: 18px;&quot;&gt;FC1&lt;br style=&quot;font-size: 18px;&quot;&gt;size=128&lt;br style=&quot;font-size: 18px;&quot;&gt;&lt;/span&gt;&lt;/font&gt;&lt;br style=&quot;font-size: 18px;&quot;&gt;" style="text;html=1;strokeColor=none;fillColor=none;align=center;verticalAlign=middle;whiteSpace=wrap;rounded=0;direction=south;fontFamily=Times New Roman;fontSize=18;fontStyle=0" parent="1" vertex="1">
          <mxGeometry x="627" y="998" width="79" height="80" as="geometry" />
        </mxCell>
        <mxCell id="FN0oJkP01dZrmvueaAVd-212" value="" style="shape=image;verticalLabelPosition=bottom;labelBackgroundColor=#ffffff;verticalAlign=top;aspect=fixed;imageAspect=0;image=data:image/png,iVBORw0KGgoAAAANSUhEUgAAAIAAAACBCAYAAAAIYrJuAAAgAElEQVR4Ae3dyc6tVbXG8RdZFmCBBUKsUGMVBYwmhqgxotGGTROa9rwBbuE0bNoj8Qa0a2KiDWPLhlERTYhKUEDUWBDAuq6Qk99g/b+MrOw7OGck0znnKJ7xjDHn+671fXtvvO7Nb37zs88888xx/fXXH88+++xx3XXXHTfeeOPV/oUvfOHxr3/96/jLX/4ythe84AXHv//97+Ovf/3rQZ7//Ocf//nPf0bHJvbFL37xIU7MH//4x8ESIw9/uYoZkOMY7Oc973nHDTfccLzoRS86/va3vx1///vfr3LA/sc//jF7a75w4g2PmKvDXj54YtTxz3/+c/ys+eH03//+d/JbG3qAhxgc6E6n0/iLIeo0+IpXH8444iQnPX9c8bKHRegSHOETMx84YsuXvzxEDF0+4uzlZuNXjTiymdXEB/4XvvCF4+QgNYWRYRda4YAUF7hi7CUHSBSnWX/4wx+mMS6APWxxYpDibyAAtyLMiPMLH7dywpKz4uXOVn6z2PZ8YBp85cuOCzvpUOzVgR/+NUxuF5kfHT9c+NA1YBpETjXVTz7i5A+3C1HvJ/DMh61ccAx78XHkXz1dWBdPHr3DUf/F4kr0AY5eGCcOszjfIGsJFAAoR4nsKwQQAdytrSAxmmYvBgF4RPL8xImHDS+s8t98883jq6kOhb+DcHlg0ssD29PIbqgpTPn5yIv7bggMfvIZOPT2giNOI+sJfzgwxRnWJAx7fKoLVwKvtwJf9cBVA9xw+MrRaC8XwdFQrzzw1dQlZIPl8NmqC5/qpyPynmxKbm1IvosViKwiJA1AQS996UuvmiG52JoqiVhxCqZXcHakjPKJZ5cr7A6Tj1uOq8I6FHtrdtzKD8teLnb1VBNe1VluONOQ9SD4CBNL+IlRD1y+1uLksq/+9uzFqseh4e5w/vznPw+mmuAasMIzy8muf/oCLx75ydXT78J6QPSUvvqrmw5W/YJ1oii5ucJyss+uGHuisQgZirJXJIHJz+E5+D4rEagp1nArLDx5+SiQvVvMjjBcT6mia4Y8/PnEVV668jX3hMsjDgabWcPw0UgCSzPh8CdxoJePL7uaxVcXXb2yVofZgGuIKXdvBDlgwNe3V7/61bN+6qmn5uLIAQvPLijfl7zkJYPpYpWj/HiK0TNnpAY52E/+x4aTQMARtN9CrxHZ2XzmiwEsgZjw6CtGoREKE04HrLCaqKkOR7x8HQziciT0RA6xHapc1jUiu3iNNuQ18BZL94pXvGKwNNaoN3iKhWfWK/ikhm4bO0zxBj7Vmd6BEbXSkc3Xm1WtaoyjnsCCb9ib6eILi17NuJqJGV5nKJdx4mRoAKcSmCV2u7yyFAxcEJt1xAG//OUvP175yldOwb/5zW+O3/72t+MnYV+gEBETiWF2fqrkwkEh7AqXx3o3VCNdDDz4VCSefIl5Y1R8tWpQ9XSJHBSdmZ+a5JfLbJD46wk/8fDF8c0fVk0Wx3fj2ONYLfYw9MDh6weeTzzxxOSAR1wYteq17yceQLjWnUmXAx4O/GHiyo/gLOepA5XYACKx4ZYiArDmACX5K0KMQoADNttLUEOQMPgScTD51hhzxKz51CgzG8GZDcd8HAg7fPbtz0cNuPORFy9reeLDTyypTjiGvaGJxfCFK05eM07lL24Az7yrAQf+5QmTDjd98TAQvXYh+dbP/Ko5G1yc6OWvTv2xzuZcxZwU5Kmq4QILllxhDu5Pf/rTNM7nUnbJFGyvaLcRniTirMPrs7dCYRdX7sjbI0uQhG2vaCO9WZHN+dFZd0Hg4aSReMg7xZ9f/bDl7oLqh70aDHgNuMXiApuuGqzhi7Mmcc4PFowGn3zx7C04wecv0p1RvYUpBpbcaiW77+z8wqwWeZ0N+0lTKDjWMAGa4gsFWwXRa0zNsK8IBHs9dfAa2mddScV2u+kcSLnlrCi8iNxy7kbTwcmXXzzorGGFl06esMKGBZtUFz9iZtvYemTvCYKrB/zM8WHXbLFscOnYw9uHwYeNwDHg40b0go9+6he7J9pM9NsbIj5yETHN5caFP7E+ebI1KqIl95nhQPvFDkKKB8S35lpXFIIVizxbvmJhSO4Q6GG5ZK0VGlHxYQzRiyeRLn88xRVT4838CHt15mevWfxIl8PhqIU+rnQdIkyczVtnbcBnk7MRDzik3HrCpu/btxpgET7qxUu9W2DqK70R1x7o9mF2AWCc+jIjeVLSDrxG86kwBZS4Bip+QM9FKop/Q9Miwc9eTHp44dPb42DGiZ8B197HEal5YhwYntVQXeJg8zHYdxwdwY9fuPZ86fAwYNULcfYkff5s+bHZO0A6ddl7ouVoX6+7IGxqkt/It550acVbw4TBt/47cMMejx5UnE/XalSvF0TZ3SqBGwgYMhWGkKQRUAAiPgLyg0WHbI1pht0ajmJge0JgiqHnV3HeXmzF4US6GHjzZS+nNW6w2cwGaR9eTe4Q+NAROvny7WDtcQrXWt1ymh24PEkXwOc+PR9cE7p6C6Maq5sNF2dG+PPTJ9h4dEno+OJIzPNjYEVQcjBqikQ1zGEgiEQFVkzACPFXhLWZjU4en1VGmPASuvR0csOQj57AIvLWKH7EDPtlL3vZxPhekq/c4cEw5OajFheTWOdnFletZnnpu6DhTvCZF2x6EpZYukvOLjGbGtVaP/jau1gODk/fnegua6fTH3ojnn28wKJLcOA/OSkBGBy7LYAInbVCBCGIUJeghIqWpGLMdPBgELHWFQHH0wqXXzn57pyKl88hiYVrDysMe09BjZIfRodR7vTtq4+fGuUojq46cLLWPDHF0eMETx3s4u3N2T2NuHnS5WGDIaYa6Ozp6Xrg6OMFV6/ksaaH1/kUm14snP3jthxih5sAhRHOBjD6rasgTQEOtKaZEYLTQXbI9uEoyr44GMS+vPblhtfHkfwwa551WJ4SF8lecf0YBeeyJnsCR1641ctWYzqIeiPGJct3QM6XogvAXp9gxVceNpjVCpePXuIPt3r5xE9MvMJmE9PgT8zhitOP+NcLsXCcxXAssQ0nRkMgQEB8iJnOUBx/hZU0LPHZzbDzg+c2hhcGTGtFwUNeTLziwb4xxfHVSEVtfhWPD7H3EcEPHt9q9X1Bvs3jpptuGuwuofiwcI2bNRtc9vRy0Vc7Pf580uEuns5swBEnr56KMwg/D44/KdUHdXizwLMnagjfWmy+9HHkO38WUNGScuZA14hYCYDwk7wvWsCQ5eMwDHg1GgY8T6eiFYl4wpeILx88fnKJsceN4GDQwXWp4l98vjBIOXBjw42OPxx5rMO1L7+1mDCLERcXtnomnwtQPeLri3Wv5DjII1ad7IZYF0Yul8Hsx3N6fZfboM8fFzj29NVsjR99tU4MZ04OYwNxlshgtxdIxJTY3KA3FFE8QuKNisufD4moGQ+vc38Kxt8eJtlFxrcDgkniaWaDZe33GTj4qMrP3gHI4zPaATmYLrWmsxP48vPpgtDhVlP5xVEtcPMx4+NSiKmvOLCRzR1vUv/YYHv6+fv9CXx8CJ5yGnzNRJ5ErnzEDo+UNoBLZM8mKTELFmjdUJQk9sXA0WiHRB8uHIVt/169bLAU2GGwOQS48So2XHw0SWPjYMZdc/wYWjPwKH+1NfPpwnTAcsKXEwdr/gYcOWGyqZU9nnzqB7waT9+lo+Nv5oM34QNr66ubTW/7GBVvEP74xJevNR2RV6w6858fAwPQeH/KJLk/zeOMVMn5VbDiiJleLJubqRnZ2WAYDsQB0yGLkMIR7SLJTc9H/oqCXYPowq9AGOLorXtSf//7308OF4nwJ3F0kDiVV7zXrkHSw5aXrxhcXC7fE1zU3/3ud1N/9eArxoxLOPDpXB71taeDX7/g0NWr+iAXXFKMWf/p5TGIWHz9WKxefypLB7szPUVAAGd/rOt2aRzhSN9nEQJiNFlijaj5wPkrThKk2SpGI/iLRxYWO51Yo6ZM8vXqZRO3v+HLDztMWHLyM3qFW9OrId8uN654+YjAKc49YWLgwoinz2F5DY01iqUjekbEwGc3cNYjeQzSXC/41w95xeXHx4ABS2yXix9/dhi4+zsOLsCTTz55VYOY8OdxSOFAOCqoW1QyYOz0khAgvU76gyMN7QIgpCHIkjDlcwCwNYjANBRFz8dgN+DIxWYtdxdAHJ+48FFDzWYrTg2a4xC7bHjxh8u3vPBgmDs0XPuTUX5dSBhyGMRejIsQHux6EWd1EHHs1aR34ox86PjY4wrDOs72xJ6v3N5W9OrLzke8nPMRICkgDekPZ2oeAh0WEH6RNEcaOEA6l4WffcVLKh6WGDbCThAi4Tik8OjFkBoDn2/xZgfFT/PtO9B48Pdk0+OJi8OEJQY2vT1xWNW+L4BLBAOeNX9xcsYZDzF8YMDefLtU/OkNEldreAac+MIVKyebtRg8yh2OnN6C/AhfYl+eeTQ5koqvAekUq0Hs3SggbhhCkufr8H0eeaUqnJ84OSSFXSPE2psjZG2ER0/gGHGrYTUjvVgNK0+12YuHpyk4xYNNjWZ46ctBb7jA8NTIz5qu3lQrmx6o34XDiQ4vw16+aq42ezbc+hhQu7VcxYZXPWzlzkccPN9NcHFW6sGJqGdyVSRChuQKNAhAa86E3fAK9QXIOgJ8NMOAG7YCEDCsSQ0IL2wXTL740NcgM+LEHC8cNVheBcp7reZe6vCVR1zY+OEUf3a26pfX6OCt+fOBz59vB1FvugB82MUReeT0Oa0eOHHJR0w1m+WoFvH2ZriwjPLxV59L70G13vHzt4JLCsAIHAFgZoEJAIURoGJqgEQ7iUaw8UFKs9jlsIbNx7qm5R8XPuVgK66cPWXi8Y0bv5qHa7j0xJyPBvLFzXr7t+ebHR8Xmk4+erp4uoj4eProHK5eGdbVpCcG4ef7EywXTC3WePGXi85ezurJVv1w5OdnwGrvAeOvJnjzHUDynK1rRqQA56OAbhByiACSNB8JkWsPW1I4YolCO0BzGHzlN8Rsm3VPidzEIcC0hyHeXi6crM1iYVrzI2aDjYiFY99lpRcTf/Ua6c1wSQfQoTosWGHCULca8Kp39RSX+hIHPnztxYWJq0EPF0cjzOzxxM3o8rHzP2mgJwgQKdlsjmNuDl2iWMEEQM2MQH6bgMTw3UKzGHbEzUhrWnj0HVYHIYZOs9jjC5vAoDMTWCTfDgmOGPt05eVfPdnjiYc4eMXrm5r0EIaDdkB8+YmlM8LlBxsGvnwMB+P3CsXAMfhWu9p626V3YazlCAs2Tt4+YvSMyMeXnzh+85dCLSglJN1OAWwIVADdHgoK2HonEqMRGsIHmcghTFdD2OxrXDmL42eIz0cxDkBsdrj5sRO1wTHnC5/OKJYvPb8axW4dpsY6LD/+wfJdyO9O+ujjD4Pg0gMVB3zxF0ccjhi99z1AjDcobAKLf7Ww0+lpvOPGRxybw3/Na14zeL/61a/m4sDjE5a889fCayiS+8ABIcoRKXYFSKgJ9gpESJw9ggN8vuHsYvlYE8Xyb8/fEG8mZnY6UiPyrQE1mY/CwgmrOVzc8ytH+diKL2c2jS3OGq7PU0+SOIJTB6g+dYtRB/78XCCDb9j04vymjl6suHJaE+dEuoTwvRFghy9eDS6Wn8SqW5wcMIz6dur1AEBRDAghQYcEEUTHBtSeP5/A7Q0+EaqhNUIcGyyNYedPHyabtRgjnzDkg0GfvXX6a/EQl9+QXm8H+3jwMaqVrdrk02RPGJ72fpfQG6En2R9m+RHMP+zQQ3hqYjer3SiHNYwOUB108oolZvpdY73im92lJL/+9a8nvku1cXCCPV8CkUBMMcDtAboMnngAfWZ0cwRbI8Cfj1j+CR82M2xrQ3KzWDHshN4g3jBhIx7OGM/NqCA6TbUvJ9zEmi0c+nLGKaz0fIqxzg9Wb7D0ZvnrgRo8neL5q6U3RTXyhclWT+19lIjjLw9dFwE3faxGecXTwYhjdnoip3wuLVx654TbfAkMFAjhTGoAR1IS9holtoYg4NDYDHFeV9ZI8IVhzQ+OAsR5E/HjUyHsGw8fwh63dGM4vxnYYbFZ42ENO3/6Syx+DlKspl9KWPQOmFQfnj1EnmSvX0JvhIuD+h1Al4Ydr0Y+9TV9/OJh35PvdzL0chMf3erYX/Dp46238s8/D+9wOEheomZ6N9O+gmswcnRmh3hZmESEfzH8YaWz1gSCVAW7LN1+PgqMX/72hI2ITejkUF/xZhKX4rPTE/hh5gvboeCPmyGeH9640pH04eBQPenyF2vIY2SXD465HGziDDFwxVjrdXXwN9hg+L4i1gXge8WFMbKeRgECAUsiuWENQAJDTGQDVrhEYYqTrDi4vukaPje7LDWMvwbDRbT4CpE3ftbsDT5b7NnM2yaeNFvnUwwd/GTr1ePHNTw95UacynctbuL0cNusYfekw/EQ7f7FA3acm9kMe9iw7J2dP86Xkw6eB7izYXcmbKdurA1xiwBKCIBUmCQdDB8Xps82cZtkhPixwefrRyZy2QyxdIR/bxp6gou1Ysx4w07iXB3F2e8mWrNtP3vxdNnC3rh41XDNZPPKxUVTxePJJ6xq2oesBj50W+jkgNsh4WMk8H2Ww4ANox8p7cXCKAfMzrEv/LDEsc3fCXQbAmyWlJMZGTNghVt7eh2SQ7Xe0mHxQ8qw3rEwiXyalR8uNUYxNUO8Qeia09Xw9uNw/h+2/C/1cQ2TPQxzeusOTSN/8YtfTF9quhzlobNWR4fRn7LSw4RlrQ/1oHOwn8M5P6X85Y8XTKNfCjmH6qOH6Q0bdw8qTj3scFxceU77NkWEg8YAEAS0W2RNvAk6eD5GRYuzVkRvCDr4/r6BtRw1IV/YdOzWGmhtwFcEHnwIDLHN1nLsPV/7cvLZUj66eIQpzkhgV3MHn70elZ8+vurAWw14WBt87cOyN3DKXh/sXZC+NPsY8lHqYnm9O3Rx9HEwi8FFblIfrOnnPxJlIVjhEnEKBPl+RenGOfiCgWpIjSuZgghMOvYwI5I+LD50CiQKCjfS9gaOOButw+FLqic939ZmOARXtnDN9unhEDrY6i1nOnOHLK5YPTT6hu77gj1fkh0uzHLZs6UvXzXRkz6G7PFyNoa9/oWJD1EbDPk9mC7XfAdQACMDUMm9Iug5sRHBHSCdw+IrQXO+bPwRMyNDzAjyp7eWo9cYncGuGOsuS4WYxbGVz96aDu9G9km+Dp49KQ7Gpb59OPa49cThThdPmOxxbs++eesDzGYYhjjx1uzm+tvDRu/J159izHvAsXde1t709j6+1Ek3nBGQkDAIMBuRo+ND1wxA8cUhBdDB85OsGY49ny6NYuhcui4L7PDNmixPmPDFmGHWmLjSsYXBl5j3epTn/9n67bd9YJZbzvbqx4+oo8vAx4hP3+z1US2kg6hvaiVxqGd0+Vjzq+786wW//K31QU6CW7n1Pr+r3wQCFmR0uBL1mykA3g6ErmSaTzpIZCQVq1GwFBW22V5cFwTRcprFy5EdDjGHI59C+kUHXziJHEkx9nHJ1nzprw5yeZkuubDrnacRdzzkMxM6h008hXBxp8ddLNk94WOUGx4JMwwx+lSv7Q3+8HEVY5ZHnHOsBrb5W8EAjIh0WwLQaHbASBkVK4afwa4RJeNjLVHE+FWYWDEOnL3GlEde8XKzdegw6I1wxVhvsc8uhlz65H+pLzZ9c4cgH172eJB6qG5Pm4bHlZ+hdjo95kf4VSefaqEn/OtJvRCLE5sYvTHXE+vsMPqyaC03f/b5TSClLwWkVxMH0s2OpAKQkciIrMNykOyAI4xgn++w+SBHz8+ar8Lc5i4HPIIsez5iCBw+9rjxg5WOfzz4l0fe9mZ+W8QYeBBrsv1gGbDKbW3Q56+m3SeYfPTBdyzrfkrKVn6x7M5BbnYjvQtgT8z6QSd/fuLo0ouFr1d8rK/+XcA+cGBuMAKCAFkL2jesJrBHXLJiFcrmxxX4fjb1R54wI85OxMvbpYINi72izCQOsznH4kYUB4tv/vmZ6djVQ6yT/Ksn/fZjazh88e1hWncAbHwM2LgZvSX55iMmbvzDtGbTGyJeHhidTTzLJZZPNdqLg9P5yGWcHJbD8fkuiSeIo8+nTYpzoAHS8TdHGBlEJFQcTK8fP0pGCK41P7EGXzoEI2tv7cC7HHR86fOTs6LD3Lz457PziWEzrMWmq6bytcevvrCJIen2np4PEY9Tl1/PrcUVSyc+vVi1iy3O25Q/fcJu0KsFxmVe+2oMj+9cgH6p4OfUfoO0nUoERJBZI0iJHYa1IrtlyCLar0vpkSCRGRLn1xRcOOZ+DHVBO5SKUygdPDnDgqt4o2bQteZXDbCMuGQzw8wGy7o84re9fZz4qwFOuYt1iNZ4i+OjP+USJ57O7ELAdT5+l+Bfa+lvXPmwJ/Eyx0ceArv+s5d3/kpYAZTWgpCVyAEgWCIzHwOBSHhCKwRJGGykQvmIZ0OIfwTl5mew+cYMx9uDj89KOuveBvEtD5sRbnWVkx9d9ZjlMxNzui6XHInYnsT8YcOouZeNZofJTnCwTifWRyXe8KutesX495pw9IMPscaFns5cLpjVZWavDnn42Q8HX7wskLAm9pxIc83d9nSBiishPCJ5+mZvBh85SPgsqyi5FEb4uPlw6HsTWFccvA5VjCeGaKIBFzd+1oZ4gy4+8Ih9NfEtjn3jbP/WZv7qiZO9w3Yp2OUlsNTD1gMWXzEGHzGGc/F2hq0n7LA6RD7xb80OI3FZ7A029ZH5O4GCgJmRlwBpjpLSN9iB8Nn+xbEpTEHi6e0duBgHKg4hJNjlMnAQZzbEGTC3TYxBL86lsX/d6143809/+tNpGl0HKefmvPXZahY/Av9S2BrsYs011N6h0vVTTZ/teKrD5WbXWzprPvRmOnXLA8N/exk+bB+NZr0l1s3qJfXdulqqF64YevMJIaKRiAgew/mVZc85ApIEau7AwnDQGoB4bwEx9A7dl0tzF6BcERwy63N7F8U3nvnD0TB/zPzhD3/4uOWWW46vfOUrxwMPPDDNVtPm21q8wW7AJuGaSfnT84NhplO/pnbI9Gql09veYLDE0Rs4718ElZsNpgGLnzzqdhb09vx8TOz66OSQU19wxyue9tXbfPUGKJkAf77sdgrk2AwcIUAIEXZrtg4HScXTEWuf5QpArFg5u2D82AhMOdiJtWLh4AWXDY7Lxm54gt74xjcer33ta+dHzy4bPCJOLcWXA1Zcm4vhT/jEJyzx8mt8dv7qhwODXs+y48jukPjaq7vhwaEXw6/a6h1b2GL1gF8XhU6u3hTs9ZVebFzUMf+hSEk0mKO1S6B5ktELMuyNGsIfMYVqgmTikRnw9bpRMAzYmrYJi+lJUQCsDqDmxqEi4MPyOwaXwgX7wQ9+MHw08dZbb52/lcuG175oNRdmeYbw+ZJcSy8v2fXDhGVWwz5w+hpPXx7c+BN9UIN8Lncxaqbjt/OJgUNnlpOfvWFt0MOQX/3m/NXBNx7zZwEUHRASflkDiLNggNZGhZQwsmx+VPFN3Y8rYkgEKlqcYb/J08HYehgOT063HJdwNI8evlivXX8N+5vf/Ob8dShYYnFyqfpRlD8svEkcWts3xmF9zqaHjZt9fODRV4c1qfG4xF9sH5W4OHw4+cIVH0d2e3Z+4tmcmfOSM521+MRejPx6Bqde8rv6r4QBqhizJ18QvSCDVLhiBmA1kp2feDaEdywdQmLTh8NGx96gkx8OP8TZeot4yjXCwWsozv4uvNvdgbzqVa8a3nQEjqEO+XZzYcuZxIkfyRZ3GLDs2YwOscNirx4zX1zxssa9PPVL/9g6MLnFOg8+Zrn1Zp+PXC54fMR1FtZ6Ym+IhzX/OrhCEAHCEOkCABSULf8I+ouI/bgiLqK96uh2wxAl/JDbBdDJ46NInj4a3HoXAUdN9MWP7emnnz4eeuihwfIW0tgarEk+IuCXr7U9v7iYYRN595rOPh1+1maNt1arPtnXAzjWBFcX1z/b8qbULxda/fwSGMWZ2dNZJ3QG6U2SLTy9lKOPWTXam6/+LAB5ysjYK0KjrEuq+YoBDqAhud8i8qPjYxZL4GhU/uIR8zTwoYftsPjlr2GayiYHG4HPRzPvueee40c/+tH8dbP+r1R++MMfzmsfJxfCF1sfbeJqGKzwcLCOnzWO1SmGjZjTV5+9GD1rzU9cvRDLRy0uZH8uAiM8/tb6kL+9czGTuKofNpvfD8htyKtn8REjto95/vLAmb8RVEEOr0G31w6LSLhnSQBVaCTH6fw/sBJrvuYKhwm/fPu1zIeNDz3yGuiV7on/4he/eHXz6cN1Mey9Gehg28Oo+GnAepr4Jfy38DXUm589LEKPo7mDyc+sL2xm/1ysf7bFBoPegOnSqxlfQ8309aleyCN2945fH98OnF3effjiDPr5PUCFICMhgycTMEd664pQ8C7KGoY4s+ZJTG9NZ8ByAHAUYR9JpMWTbqhbHC5/a7jE2tP93e9+d16jPg74vOlNbxqujz/++OTyewEcDE+Vj6l44YEDUV/NojcS/oTdEINrg72aiq0X9vVD7fU3nToMfrD1gewfYfUjXDXCptvCHzYsNmuDxFONBEZ484dBgkiFFMiJsNeommcGvA+UjkhA7A04dHDzVyxCMNj7rJfLYHcB+LBVONwdy/bwww9P4z70oQ8dn/70pyfO5yubhvoI6FLFQT2bHw72DganbDWLDhd2tl7R1ctu4Eb4haVmMYS9+szyiuOLq9lPLPCtwxPrNa+OvuRae4DUVH5+Plrs5RRvLZe9NZGL7erfBiJpVPBuiOD0kR6UdciAK4atvTgxSGr6JD1/4bHWVHkrItwwFKjgLqBZY8pl73OP389//vPj29/+9vGWt7xlvmR5lfa5L4ZPjdj1wYgnTmz88q1p5TQb8d+1ZtNs8WwGX5K9WV75wzDb8+8ChGUfTzprowsWd73kCy7YKDIAACAASURBVMu6WsrB5vLAmF8EZTBzRi6yJaSPgEbyJfQDdH7VR6qikBMXCTF8kEWipwoeXzM7gaEA4sayGfKZ8Sw3nJ/97GfH5z73uTn86vClEI63QfnKA7v8YckNm56kx7daq0XuhjjrGnstfulgw6s2OQw84wYnvTiXvD1eetqeLzyDvr7hQ2fmCwd34i2D8/z3ARgjHwBnQB2GwEgB4J9IwiYW0S3i2CMrjs7r3VoOUsNrUnPxZlw0yFous3j44uX2B0G++N12223zZcqrVIxmV0uv2n49jQcMeNa48reWh3/fqtnCw9E6YeujAVZ47HjC0yffr9LBpyfwSHH0cR7D2cYeHl71N756wQe3+t5cnvZX/+fRFICACC5xjQkQ6G5+t5ifGINdobAQVRg9H3o/kvVjmVc0fcUjL4d9zbHGD15DIXHjlw+9Q3DD3/72tx/vete75iPkG9/4xvxuwH86FX4fB3281FR8CZ6a62Okt49a5YGvHjH44FGzxaaz5k/4qEGMmb+RrVrE8ul7i98T0OkLbnHpCYZR7TjhiLMYg02cnIZeyVWe+cOgit6GHDRC8sAl1Bh6gESSBqySVBRdROj8EsSr2We2AmEq2hAbZjk0XK58cNMgomB6Qg8fnqcbbz8VaEg/HcjnMvi4qKnxEwvXrF6DzSXposOSTz3VjzM9H1zx7s/tXTQYfOuheFxJBxh3sXRyiqHvJzI6seWFJ/fmI1aMIW99CWsU6zvaXAAABkCflRrgkIFZS2JN8jUDzS6ZpHzpK5aufTFuL91++uBcEobRxRIL257gAwN+nGBYi7P+yU9+crz1rW89Pvaxjx3ve9/75suhJ+izn/3scd99902shtd0sd5M8ugDfl3cPgZ8zJDqcujW+oUPLAdmXc+ydWlckurhT+SEI6bedXFcruwudj2hc4nrg0tHYPCRo/4Uwxd+vZ2PgJwk5AiUaGJregk1ItLAJDF6EsXA42utWIT4wLL+5S9/OT5IwOMnt1FsRO35iWudP33+mkSPp5yePN8HPO0OUvwnP/nJ4+Mf//hwcwl3TdaGg3cJ/P0CeOIc4B133DG6b33rW/Pxoh6iF+qqNnq1w8EDL/Eduj3esA08iT6oWZw+wKkfYsWw1Wd1i+cjTg5vL3ofq3jDUBOpn7M5X+DpHeI1mBFBZABLVpPtJeRvDdi+xkV4+7Ff3v7iIhIxs8YZHSYsA1Fi3SyfGDoN2j5y2BuPPfbYcPSl8POf//zx9a9/fT563vCGNwx/HwUa1oWF1xtKH9RL9MHTL6c/gubPFw+XgK+8DtRBOQCCg1i+Zv56okb+uIu371Lqm7j0cnryYXi7iDNwYONvOC97g10+GJ2NdbXwp58/DQwwwgVzUAgghOiBE2vNQRwRPoo3k4jBUGQ6djpxCBuErmbRtZcnshsjHmI0xuHgoUH2YfqFkF8U+WtVLoG/LPK2t73teO973zsXwT9Xh+U3hnjyJ94ADsqvbTXfnzXgQvyauT9s6stafGHB4UtnX0/U0ZoPG/7y4M6/GHprhyZGr8Ub6nMufOzN6jf4d+j2BE6xcJxT+Ff/z6EIS6T5wN1oh8S5ZLsYa77IA5MURr4ShkdfLDL86Qg/NoPegGvPhkN2sQqQi04jakyXxsHRe5rkF088lT2lbHj7KHJhfCEtXtP8raIPfvCDo4MRN7n8vUM8fKx0iA6vyy8fjGq0Vod9tZvDhY1PfHGtX2LLrSZxRD787bts7Hy7ALjKEUc2g59acZLnVCAFwGZJkLYHZG1EUJx9wA6eH9AwOmRk+LJvv249P3hD6PzFBkkxHbYGVyB8/vBwhsNG6Olg7YPQCN8JHn300cPr36+N8bJ2aH530OG5RDA85f68wSXptX/nnXfO/6HVV7/61blA8va5LT/MnrBq5hNHuPTEuoPqULZdHCw6om4Hr0ZrOOL4WavZmk5vrMOzrvfl53/9M8888z+cAXpCeqKBCDBzFGSUGGBSYnNEW2uq4uUwYFS44tnMFaX59vBhyO/wxMEyCFux1uL5OnR5arg1LDY/AtL7jzi++93vni92/lMvvif4aPjABz4wHwVe99///vcnzuFnE4vfJz7xieOjH/3ocfvtt88fLsHoDXBZp9z1rl50MV1umD3N+l2PW9sTsxrFmuHuXM4FPsx6IY6e5G+tv87gU5/61HO/Ci4JQIZIaywiAZgB0huJOBj7trGnhwfH3MGwi0HY7ID4I9/cWpwmuaDEheCvYLqaAgc//n0RszfkMby6HdhTTz01/386YuSB5fcTfpTyneEd73jH8frXv35wfD/wMeH7wI9//OP5GHjPe94z9aoLHxdAHiK/JtvDVw/RH6Peie2jSV9wUCe7eCN89eLJD4ac/Kzp1Caejl/5zHQ45J8Oz+tOp9M8yjUv0vaSGxGnIxN4fv2z2W9QhAx6iTsA8ZHhT99t5KeoiuTXYFOgw8bHIcJWsB/ZxGgkfzq5NczgJ5YODl85vfodtqfbj3j+boEve3L4YugJ94dK/lgZL5fGR4iLIGd/pu9joidaffVKPtLByZ3OurrH6XxIux48cTe7XOb65ZLYlxcWHf9+5I0HfLzE6g8+/L3ZvvSlLz33BhBIgJZIAKKArCuOr0HPbs1mhGN2UOI032zQwxdH+CgCVgfEXzEKoXcgSJcLeb5i6f0IF/cKlCfuzbDE2JsdrIbffffdx0c+8pH5eLj//vvnCfd579fI73//++eCfO1rXzvY4NdMuX0/cDnkqz/42auL4CpPfPO150vg4kc6QDqDiNE/fTGs+etldlzix4aPffn40cmpp/3C66ThgQAsqUYRBQgSDAzxRCIDBptm5Cc+PD7shN1eEdYVYU/Y5HND2fjYG7jJDytMe7F4lk9uQyybOLZy4snfj3A+7+E9+OCDh/+sern8f/N69fsu0H90EYbvCy6PGE+mHEYir3wGfYfWd4T05jhWCx+4bNWID9Fjbyx4ahZrbd44vQFxdUlhqRUXa4cPBwafEwWDpiQAI4UIoeNHKjqygbNJxg94sfSI2UvMv8OwFmPggDQbkZPwEWcQ9rA1SGz56A38jbjhpGH85eCv4d/73vfm2/473/nO4957752L5+8UfOc73zm+/OUvz/cBsbDwM/AIWy52nMz1SR45PNHVFxe+uJB4iyU9kDha65u3iX29ac0fF7GwDbnMeJjrpZmvWDXgJff8u4CaWVFmBQDeBdIh08EgYK2REhMJCIySh1uD2K3hKdK621/eiMIw5MHFmr+hwEQOHODRK1aBhJ6dsMkBj48HwBPuQO6666754ieHz8dHHnlkbGr2USOmPyzCV3yY4bc3y4tDr2ec6eKtHpj0csLgH8d0PdX74OHLD6MeinW41W+WD748cMy+68A25i+FUtZcwDUToEKJRmmcBDUfOBEvht4gHS4bHEMOekQ0XDy7HG4kiSQ9LCT5wldwBToIdk1RaPw73AE7f35aw6thsHwGipHX7wDk8csfbwK/NfQPSuSl5+NLpjzxqelhsm2xF48jH/nlFa8XPSj86PE264VZLFv1isOXhAGzPruk2etvbw4c0ompV/DnL4UiSDgZBEFEOQkQiEw3qgPVCIQqyEUhYowawAdZ8TA1lQ2O/NYKZyumxog14MnDHj69eHGaVk56udgMWIY1H3mJGZ7P/8985jNzAfyI5xJ4M8hnhKEH4uVL4MZJzmrkp+by7EsQhjk7TP710GWQD74+m2HLFZZ4PuoQ30HjHMd6Ecdi7OcCWACvuQID9IVBMrdJEzpwpAGJoYu8b9BivWbEwY4Afxh0fEgFWcOIdMV2wP2YB0N8bybxW/AxxGsGbrjXMPji4ZWTLx9vAj8W+jcFhj8XcKlIB4C3+GqGFwc58CUOJR728baWr0Fv1A/5XILdOzFdQDP/HiZ+YsuNT7HWfOVKb4+jPbn6+wAUCvNkFqDICpVEcuBAAhBj2BtsCf+IssGA7VLVoH0BxHVZ+FnL11MQhlmcWe6Enz2bWFxqDh/7nY9v9ajTJfBLIBfH088mXoyDaQ3b4cLzUcRfbr0zE3hx4IurXqjLgNmAIzc/PYMjd9zEwiJmAz5fNmuxcvszBbjlFgPHA6kGXOsL2/wnYiiAmQESa4CK7imoYQpQTM3nIyG9JxOGNbFGSIFy+PGuPTscBMWz89vY9PxrhpywDbY4mfHgVwP40BdTfenawwnfwedfY9lhV2f94Ve/OgD7asaDXtPN4tUmr714At8QR1ff8YchBoZ4cbh2YbKL1b/y8LeHxycssfTJ1d8JjLgZwRoSsD0BRuwDbZYMMfEGvYF4Osn7bOMfQTPfGgNfUxwCYcdFM+JKX+PocNM8vhVJrxmwYcLHhS+bePvw+dERvAk/sXKzwRZDfJTISVej+csTB9iwxKoHVphiCR92Odjzt4dryEnPzhdXODDM9WrXM+Dr/4Mp7tU/PwUAEizQsOcgETEbbCWOoCe6htOJRTrhLzZMe4IwXTlrIp03Tje5JkY4XHFxguWQ+fBPzwcXtcF1OTtoMfyrWz4SJxjG5isHPHXCxjneYtn4yCGXHOLty+vyt+evf6R+WvsIIPjx4V8cvngR2PEoVx9V5RvHc12wYIpT57kHzykEAK4xNaImmjuUgIDnz26tEDgSJfYREruSj38Hw+YzVRGa4OmCB1fhbL4h89cQOTsMPgYM+djiR5/I3aHGi04cP+vi+kynUw//7PISerUVI28NdhmzmeuRdZji6O0Na1zM1SYvKTdb3Lv4ekJnz09/7NXE//JBYqOf3wRy2jdMswk9QHvNEEDngCTxhcMfsUaYjl2BLktEYcFQkEO1FuNAPUHI8yU9iXRIw9NQw1/p9rdxfE77x5XZ4fbLjZpbs8w1S45yi2XDgV4+OPjg5qKpUyzhw4YfTnzNfGsmH3Y9E5vwYyP5iyd4lEOMOvmIkS+beLW1F0vHX01w1GBkM8MhYtnE0MXp6m8EAaKMOEDAvrEjFFhEXAhF2NeULsA4n5PD6Ckx85FLHk2GDcdv2hBUoNwI84NfDnZ55eNjhgeXTyLWvvgK5iefGS8+5bLmFx8XamPiZfCRUw5rOut4wBMnB37WRvWY82dvHdew1eIiscuRhCe3HOZqEMs3Dnqsni6umvnD4GeeHwOBC84gaYk0nM0hGWwSWCNA+AZMTyqoCyAGTlhIsRE4LoOGIGbwI3GC743Dx+HAU5w8YW5O1u3DgksHs+bhQWDJoT5DHnHw6UlNs+cfHp/8zLBhVId84ZrZ08Etj3lzkCM/WGyG+N4W5YnT3u8HTDzhpwf8pg+SZrR2KBJ72hr0dAI1JtL0xYehAYAjbDbE0TdguFz8ibk1ckbFimFz6D6q8Og1C7sLSW+vQYa9GnCs6XHnB9+Az9eIixi2zck6/Tiuz+X6IgYOTGt1EPmLNZd/H7I64IgXy8eAJQYGYbOG3XchXyb56Cm7tTg+ztSFsXfh2ekGJ8AcKCtUcqTsJUSWnSDKTh9Jtg4OgUiw1wjrmgqb3rCuaeVvD7e85nBrVjj84ePp9mukgtPLI5bdYC9Wzjg28y23hsERU71q7zXN7hB8lPmeI44fga2/9S0dfDYjLnHlIx4XWL6r4NwX4w4Sxs4jjj9Mej2y74+Aw6u2+U/EcKBg9MRoij0xA0OMNCOzyRYPKx/+sIhGsSHFV/P4ubF0Wy+fhuLjhovb+fIf4PURtHnyEafxZliGhmheGPHjUz1mWHiyW7tQhK3BBlMtDp+fdfn4WRcHrz6Jsy7GBTDo1erAi+WDL+4kPf/2+liP5cWt2nDSR6KO7Oar/0aQxIYgwILSmUsmaBeClH0HZF3zEe8GWu9YRdiXY2MiCmP7sxM4YtnFkmLps3lS6NVRjJlOLQZ8AsdaLHs42eQyYGWPO0xY/si3WjVZ/vDN+irexa7HcXEhHZ7hDVJP+OJC5JdHPiMdO3y5q4+NLxw5+chp7k0kRv75VbDbwcEhEoHAEAIMxAAaCTOdP/wB5s0hns5trKnwuhxy8CUVVkNrMhufCrDmy07wgterna3C+bDZ4wCjOHno24sz4KsTb7XyKz9/h0DEqQmmsePZ46vB/KoLBmw69dsb/PeeP5+wfOGNn5rgilO3OZ5i2neGbCSOchF68QSnmRVLOHfjOLVnkwTIbh5Svfb6zKv4mgFDIiOdfDsn8hGVSw5ExcjBpjCHw8afjY6N8DfYxcBnK5dZDXy8Wq01mJ5O3eLiKFaeRrzCZRcHxxDrEsEJQyx/Nr7xFVtceOZ6K5dYQs8XpjhiH0b1yi1POeSDwZePeDpD7+Cywzl5ddkAMQtwkEZJXQhPeIEAFWvPVsK+kUpMJGPjj1zk6SoCRmsx8rLjwWYtDoYZD2v2KeB8wezLVX57PMMzq7Gc4ukSejzp4iEXffhqIvQERnhmucU7EDH2Lm++dEaY+YupX8VN0LoIYowOmr96qqEe8SmfmZ0fCVte47lqzl/WKDgiT+wLkCzSipYMEfp+WeS1a8Dg0wynpoQPy+WBTzoMB0Z64mswfzhmg8CCiwd/XPKphnE8X0Z++MkZP/YaVDzcHgAx9UDefTFgyCOnyy/OgCOmS2ItR7niLw4GaebHn0+8YJL04uh81zDzozPy2Ziw84lLdVz9JtBhkA5A4QK95jlrcAWVlN1IL17x6c1IsVfMxldkQyPZwrJGtljFWuOV2IuXg5jZYaU344SztTrwUpMc9PY1zlyTwhBvwBevlvby2suLTxdCrBFuPclfPdULt17xbw83sTbw5cPf2ugNzTe73IQfsRcfDzyt518H2whUgOSkAsfp/BlOH4CZr+SK9xEiCRyJkIQX2ZrRoWlkJMVoCMwaDGPHx1HO3aQ44Utg4sMngZ9cruFWN1t1y7PzdyHjx688uNY3GOqQHxc2c7Wa4bqAavZbzXoKOxEHC061iOMLowOUFw/6y1rYGmL4ENgw2eYNIHAXw6jACCjeX5J02P086bOYX08SYBhEHPCKtiY1wzoyfFwe/+YufDiKZQuj4vuFhmbJv5sGd4o6/6rUvkLjg0NrecrFV5144WHWA/FxEYsrPV70RvXBIGL51gd7/vZyyAm3Houhq9bnUJ6rBU4jP3vxziAuONDBYDfvGuIYl/ZX/+/hFIZAQApFVjM0GXnAErow5poPlPAlLkUCLzJ0cvCvCGvF94dBNZSfJ8SfAMrVz9V4GTVfztbxh13za4rc9HHlmz+dWvBUWzZrgx4Hg28YZpikOvERU75qhxnPLl3948seb3u8+dMZ1aEuPOCKx6HcfOIkll5s9YRVPvP818IFloCzJKTDFwhQYZrPV3I6l6RkZ8Dx62DSiYNdo2EQuRD1Y1nNUwS9GE+8vRziK3aCz79jqMh0fPYTJX6P/HHRTBcWdnXwTfjCw4ceR770Br1a6LboSzzoxdp7akm17Dj29nE0i1UPG75yGvgb+PPBAz/rLokYGIQu3Po5/zCEMYIcgHdLAdibXYASs4uhN2qSp7bfW/vGXVE+OvghKa48cotBzudhDe7CePJJF6e84ungWRtEvj2XD+9Efg0wHFRPLF8cYeETX3HVmI4PHDFxEkOqj63607O1ZmtvbeAE26GKJ/jBVi9b51GsvREejklc7K2LKd/VHwczCDSAOQBJ3Vg6iR1iB6Fx9IovMYxuIAw+/GuwdfgVCNcFUKx4vh1O/mKsCf9mMeGJZctuj5cazPzo8CJxti+fWHoibtuqgY1e3WolYugMnNjMMPQxXTzKEcd4iSe44kTSyQ9HLH92PbGn12szvfgdi4d4ej4w8TLPBQBoaECk/fgnQUXSA7cX6NAAdvsRIHz8consQtkdusTyiO2yuFhw6ORBsmLCEFsB5TXjnQ9cg47ASNLZV2d28eyahBN9XMLDi86+ywtLXWrGHw578XvP1x5G+eiqAT4sPHZ8eznE+TLO1z9cKYa/B5V00PxJfMz86at1dDYO1GFbcyoIOSIxuz3f7BJbp+NnlLh49gQ+Hw0Ta7gAEcaBLhz68MvVxVEsEUPYiRgDPyLeheWnDoKHPZ94Vw/eGloe+2qBa+0SiLeuJrj28bGGLX86cxjp+NCRaoAZXv5w9E0cO3w6fYCBPxtd+wFZv0SqJ82TBZjEEVZ8n9mAskU4YvzZKhARn/8Ia3TExRn8NbWZv5FfWPC7IJ6K8CvGnH4fqPgKF2/Nz6gObyA2OelwsSbiSRhmsvMXR0e6JOoTr7Hi2ItnszbjYo4fvbhy40Pyp986b9f9yzn5XW64elHczi+e3jnzY6Mz5vcAFA4CmMMvABEEEKZLrOkM9oqWwCAKtOZb7MaSk92sqeHxFQuTHS+CmyLo+bAZYhuw5DDEwVSwdZg9uWxhwRfT56Jcm6t8cUyvT/js2hwMXDbYYuQn9mz8HRiuHjJzOHyqWR4Sf1+oq5POg0ZgiIMjFncilwFbzf4xLB+XRC/4TT4OgCU0c7JGNMIc+dFnZyP8Ss6nb/7sGi8hnw5sgs433FqzDNh8YPAPG1m6ZjZDTAWyJ/yIw6A34qq+YsIx02lqHxPlqlZxdPw6ILO+9GcLfONZHjXBZSPiq7Onla08fGDA5sfHIHhWC3x7fjBxw8XaYfMrLr5xCBP+1BMwAE4VtpvAseTIFMyHiJEYlhtJDwtmZJvhFGPeeSuoXPKwmzUSPi5meBUpl0Evt4tniDX48RfLTicXf7ngW/sxlF/19SaALTYeuMAn9C4jH7Hwq7F89AZh5y+fmC5dNbPJy4YnfUM8fVzxUVtYamKv3nzl7I+/e0NU46lvlQhKLhhxwRUSgZrAZp0vu9gt+dJZI0FKbK5h8DRVAXRdBA1QnHiNag+Hn31xdHjAMnBjt84/H3hwSU3jK97HgNdrTWN3ucPjk6/cbLgQudhg8zPYzKSZDge54CfsYsO3DouO1Bt89JB+29hxN8eHPR7yEj6w528Eaa7kRuQCorMuYTcfADBJrMUhxLcG72Lo2ctjJuLDgGMdSQ0S063lb6/xfDsUekVms2aDY8hV7nQ1Nru8/NrHbe/piNzi5SBq25eErjzlll+M2Gz89NNejR4ifSQdavFyWO/+xHdz7KCrt77Y91bkE878nUBAkiMnkcFhF1kSwZGrcDqxcAhfYr91SBh8IyoPHUx6Arcne+fjq1EK8ZTiZ8hXoeU2w5WfT1zSs1mzkeL4eV2Gl62Dojf23kU1rtUD8XKpCbZ1vO1hye2js0ubXg59ILCLg0F2XcXwM6oTxvaNC9xZ+xLDuduH6AZGELjmsxH+1gCsjYiys3WwYtm9ZRymPPDFwrY2k2L24fMn+cCj88T5oteXMD4K5wfHgcCuceLkZNMUa3xwo4sLnHzN4vnBqlb1+b+pw6H/jgC/8pZTDJ1csMRvXnR9Njt8/rDxq95dV3zg8bMXYy6HfXa52WDRmdVCL378unUBIZ9jOiSIQIO+5gEhDo0OngKM/M32yGhCMdaIsFuLZ7N2yOWA78mnh5Eeprz40hvwDL7VsbnvfOxqCbd67a0JzNbtxfGBxe4SGuWthjjtHHHBHc6+LPzhlkdfSP2CY9j3xtEXcYS/S2kPV5/o8HIu9nGRm9/8x6IpySgu/ri3CyIpeyD8K1QxkhB24BpSAfb04g1ilpceTs1UEPJ0DcX2GcvGp582+LDJZQ0zDHlwY4sLHYwOkH+xeBI41u1xpRNj0PsvhPqDql7dfOhh1U++5VUnCQsvfmLiwoYbnXwN+/zo9GrzkcMbtj7AMOIEv7rCzD7/x5HAORMGATXOTCJnNiTlZ62Qbhi9JAquaHZ+9NnDMfODZbavAXIbinMJ8qlxZvZ4wLaPi7eDjwnioGqiPGwGDLzEsFcXXXngx5vOnuiVvZE4BHtvMDMcoi5xcrigOMSnnPnzpUsvXiw7G8zqsVZzvmriixuRQ0z5+ZF0J1+m/PwLnETSXFDJCwQiMbs4BfGpWDMiNSh9PuaIwXKjzRUYD3708PnDs6Zj42/WDFzYNMO6nJsj3N5UsNj2EAuzC8nG32/RHKw84vjVC/ldUJxcIgcvxoWtRv72cMUTaxx7asvLRsefDqYcMPMxE7h85ZEXX3s56Nj9uw3cvK3o5DTLP/XZANxPGHC6EnNM1xoQEH7I8WWzNwhsOjYiBhlxdC4JO72RH11YHX5Y/Fxa+55avrDo+PNRPH1fsuSnMzQIB7Oc+NLHQRws0mHiTceXn3h7vr2h/J7eJeEbHru9mVi3Lz4u9g6ww7b3BjM7QLnjhoOaDYff5bTmCxNWw16/YMCzhzX/x5GUGqEQRo3xGS7JvokVX6MQHZCL38vnp2C+Ci4h/GLo7RP6BB97XMz5aWwczfxqKL8w6Ek4zXFrrgZxOOJryFO8pspl8NuXik9xLqa1XNWNm0sJoxywHQw/9cHFh1jXez72fOBa40vgssPqQeDDFxY9Dt7u+OJAX3x9OvkrVxIKNjhJJAGC1nQCrAm9wYdIxM6veHbrbXdbvZLgINTh8mutKDzgIWtPuuGKrUh5jXKaK0yOOMKABVc8vTgzf3Ww0dU4/uxw5BPHz946v7jjJ8ZDBNMoXky80slHsulNWHh48vNlEy8vEYtTF8v5ic3W2YmBz59v9bFX//wm0KZLwGhIKjDiZgW2r9kaYd0Ng8WPPgKIwSyev2LYK8663OEhb9A7RA0pjzU/syFv3KYT5+Zmk1s9Yqz5w8azwxRvhAuny+bpFtermA9eHbh66hcbqflyJeWW0xqGWDyJmT6uXV5Y/GDH3dO9+dKLNeAT/PmwiYVB4nT1XwkTxLGGcUYiIDZCzwcx6xpUEsBur7/m7VL5cQl5MXxrkrkDZy93OPA3ds0cEuf/kcuAzU5qgHXFwuwNoh6HKc6rUZxhT9Rkz5+Ei4/LCtOosT0osPCwL04sPDm3np3Oxyt9r+hdD7s8Pbmw03UG9VKcGukJX3v56wE9v3ya5+8DVKRABsDWVRO/2gAAAghJREFUDsievYNBoibnC7wnBGH+PvMkl5Q/HVxr2Ia9RsNOx2/n1mgil0HyrfD42qeDk8CwFy9Wvg6g5uNVLHv1plPPxnDJYegRzHLzCZ8trB4YXPl4OOqPPT0pnz7SGfjLhX8XT046M5GHvXzxjd+2b78Tx54OySumQPuISNgB0vExrIsDrqmG2+1HKOIbMpt4c0NB5dIIwkZfU0e5fnZVDFsN0EgxOFSoPTuBa5TTf9nMq7u8u8nx499hiLN3iHIQMfZwcLWWT/6424u170AcLL04a33iAzfsapCfiOdD8pUvrrgUw25UMwy4Zv7pYdHPfyxasGbkbF3CcTp/86QrWaAldIl63ZTMBWBXgMRi7OXj0wGEyy4GUVg13b4mFg+D3R6ON5DG0nm66IyaB7d8YmHyl0deayI+/tbqTV8ec0+oA5SDwHSwMH0+6wl+cFpvbLb6KD9eYvnga+Zjrl55fHT4Mk1cLBhykGY6Izz4cAx6dfE9+T9BUkBFKE4hEnImdPaKJhG3zq8G1rCeFkngZOePgAPLB0lx9F6t/B0iTorVVIVqSvn54CWO3d9rsPclrWLtYeAgFhadWLms6R2OmmGZDTZcxZpJl8wez/DNRh8LfbbLDZN/+Pzw00sccCf09okYe8O6i8QujxywxRE14SqnGHtxe8ahHPKr/bpnef2//J/twP8CXoHPHNvsA2MAAAAASUVORK5CYII=;fontSize=18;fontStyle=0" parent="1" vertex="1">
          <mxGeometry x="79" y="822" width="98" height="99" as="geometry" />
        </mxCell>
        <mxCell id="FN0oJkP01dZrmvueaAVd-213" value="&lt;span style=&quot;font-size: 18px;&quot;&gt;&lt;font style=&quot;font-size: 18px;&quot;&gt;Input&lt;br style=&quot;font-size: 18px;&quot;&gt;&lt;/font&gt;size=128*128*3&lt;br style=&quot;font-size: 18px;&quot;&gt;&lt;/span&gt;&lt;br style=&quot;font-size: 18px;&quot;&gt;" style="text;html=1;strokeColor=none;fillColor=none;align=center;verticalAlign=middle;whiteSpace=wrap;rounded=0;fontFamily=Times New Roman;fontColor=#7F00FF;fontSize=18;fontStyle=0" parent="1" vertex="1">
          <mxGeometry x="106" y="961" width="40" height="20" as="geometry" />
        </mxCell>
        <mxCell id="FN0oJkP01dZrmvueaAVd-214" value="" style="endArrow=classic;html=1;endSize=4;fontSize=18;fontStyle=0" parent="1" edge="1">
          <mxGeometry width="50" height="50" relative="1" as="geometry">
            <mxPoint x="260.5" y="990.9999999999999" as="sourcePoint" />
            <mxPoint x="260.5" y="952" as="targetPoint" />
          </mxGeometry>
        </mxCell>
        <mxCell id="FN0oJkP01dZrmvueaAVd-215" value="" style="endArrow=classic;html=1;entryX=0;entryY=0;entryDx=90;entryDy=34;entryPerimeter=0;endSize=3;fontSize=18;fontStyle=0" parent="1" edge="1">
          <mxGeometry width="50" height="50" relative="1" as="geometry">
            <mxPoint x="594" y="932" as="sourcePoint" />
            <mxPoint x="594" y="904.8888888888889" as="targetPoint" />
          </mxGeometry>
        </mxCell>
        <mxCell id="FN0oJkP01dZrmvueaAVd-216" value="" style="shape=flexArrow;endArrow=classic;html=1;endWidth=15.428571428571429;endSize=5;startWidth=15.428571428571429;startSize=5;width=4;fontSize=18;fontStyle=0" parent="1" edge="1">
          <mxGeometry width="50" height="50" relative="1" as="geometry">
            <mxPoint x="629" y="851.5" as="sourcePoint" />
            <mxPoint x="663" y="852" as="targetPoint" />
          </mxGeometry>
        </mxCell>
        <mxCell id="FN0oJkP01dZrmvueaAVd-217" value="" style="shape=flexArrow;endArrow=classic;html=1;endWidth=15.428571428571429;endSize=5;startWidth=15.428571428571429;startSize=5;width=4;fontSize=18;fontStyle=0" parent="1" edge="1">
          <mxGeometry width="50" height="50" relative="1" as="geometry">
            <mxPoint x="188" y="869" as="sourcePoint" />
            <mxPoint x="222" y="869.5" as="targetPoint" />
          </mxGeometry>
        </mxCell>
        <mxCell id="FN0oJkP01dZrmvueaAVd-218" value="" style="endArrow=classic;html=1;entryX=0;entryY=0;entryDx=90;entryDy=34;entryPerimeter=0;endSize=3;fontSize=18;fontStyle=0" parent="1" edge="1">
          <mxGeometry width="50" height="50" relative="1" as="geometry">
            <mxPoint x="440.5" y="933.4999999999999" as="sourcePoint" />
            <mxPoint x="440.5" y="906.3888888888889" as="targetPoint" />
          </mxGeometry>
        </mxCell>
        <mxCell id="FN0oJkP01dZrmvueaAVd-219" value="" style="endArrow=classic;html=1;entryX=0;entryY=0;entryDx=90;entryDy=34;entryPerimeter=0;endSize=3;fontSize=18;fontStyle=0" parent="1" edge="1">
          <mxGeometry width="50" height="50" relative="1" as="geometry">
            <mxPoint x="320.5" y="934.5" as="sourcePoint" />
            <mxPoint x="320.5" y="907.3888888888889" as="targetPoint" />
          </mxGeometry>
        </mxCell>
        <mxCell id="FN0oJkP01dZrmvueaAVd-220" value="&lt;span style=&quot;font-size: 18px;&quot;&gt;&lt;font color=&quot;#7f00ff&quot; style=&quot;font-size: 18px;&quot;&gt;depth=128&lt;br style=&quot;font-size: 18px;&quot;&gt;3*3 conv&lt;br style=&quot;font-size: 18px;&quot;&gt;size=64*64&lt;br style=&quot;font-size: 18px;&quot;&gt;conv3&lt;br style=&quot;font-size: 18px;&quot;&gt;conv4&lt;/font&gt;&lt;/span&gt;" style="text;html=1;strokeColor=none;fillColor=none;align=center;verticalAlign=middle;whiteSpace=wrap;rounded=0;fontFamily=Times New Roman;fontSize=18;fontStyle=0" parent="1" vertex="1">
          <mxGeometry x="339" y="998" width="80" height="100" as="geometry" />
        </mxCell>
        <mxCell id="FN0oJkP01dZrmvueaAVd-221" value="&lt;span style=&quot;font-size: 18px;&quot;&gt;&lt;font color=&quot;#7f00ff&quot; style=&quot;font-size: 18px;&quot;&gt;depth=256&lt;br style=&quot;font-size: 18px;&quot;&gt;3*3 conv&lt;br style=&quot;font-size: 18px;&quot;&gt;size=32*32&lt;br style=&quot;font-size: 18px;&quot;&gt;conv5&lt;br style=&quot;font-size: 18px;&quot;&gt;conv6&lt;/font&gt;&lt;/span&gt;" style="text;html=1;strokeColor=none;fillColor=none;align=center;verticalAlign=middle;whiteSpace=wrap;rounded=0;fontFamily=Times New Roman;fontSize=18;fontStyle=0" parent="1" vertex="1">
          <mxGeometry x="468" y="1004" width="80" height="68" as="geometry" />
        </mxCell>
        <mxCell id="FN0oJkP01dZrmvueaAVd-222" value="" style="endArrow=classic;html=1;endSize=4;exitX=0.5;exitY=0;exitDx=0;exitDy=0;fontSize=18;fontStyle=0" parent="1" edge="1">
          <mxGeometry width="50" height="50" relative="1" as="geometry">
            <mxPoint x="670" y="990.9999999999999" as="sourcePoint" />
            <mxPoint x="670" y="952" as="targetPoint" />
          </mxGeometry>
        </mxCell>
        <mxCell id="FN0oJkP01dZrmvueaAVd-223" value="" style="endArrow=classic;html=1;endSize=4;exitX=0.5;exitY=0;exitDx=0;exitDy=0;fontSize=18;fontStyle=0" parent="1" edge="1">
          <mxGeometry width="50" height="50" relative="1" as="geometry">
            <mxPoint x="740" y="989" as="sourcePoint" />
            <mxPoint x="740" y="952" as="targetPoint" />
          </mxGeometry>
        </mxCell>
        <mxCell id="FN0oJkP01dZrmvueaAVd-224" value="&lt;font color=&quot;#7f00ff&quot; style=&quot;font-size: 18px;&quot;&gt;&lt;span style=&quot;font-size: 18px;&quot;&gt;size=128&lt;br style=&quot;font-size: 18px;&quot;&gt;FC2&lt;br style=&quot;font-size: 18px;&quot;&gt;size=10&lt;br style=&quot;font-size: 18px;&quot;&gt;softmax&lt;br style=&quot;font-size: 18px;&quot;&gt;&lt;/span&gt;&lt;/font&gt;&lt;br style=&quot;font-size: 18px;&quot;&gt;" style="text;html=1;strokeColor=none;fillColor=none;align=center;verticalAlign=middle;whiteSpace=wrap;rounded=0;direction=south;fontFamily=Times New Roman;fontSize=18;fontStyle=0" parent="1" vertex="1">
          <mxGeometry x="707" y="998" width="85" height="92" as="geometry" />
        </mxCell>
        <mxCell id="FN0oJkP01dZrmvueaAVd-225" value="" style="endArrow=classic;html=1;endSize=4;fontSize=18;fontStyle=0" parent="1" edge="1">
          <mxGeometry width="50" height="50" relative="1" as="geometry">
            <mxPoint x="377" y="990.9999999999999" as="sourcePoint" />
            <mxPoint x="377" y="952" as="targetPoint" />
          </mxGeometry>
        </mxCell>
        <mxCell id="FN0oJkP01dZrmvueaAVd-226" value="" style="endArrow=classic;html=1;endSize=4;fontSize=18;fontStyle=0" parent="1" edge="1">
          <mxGeometry width="50" height="50" relative="1" as="geometry">
            <mxPoint x="509.5" y="992" as="sourcePoint" />
            <mxPoint x="509.5" y="952" as="targetPoint" />
          </mxGeometry>
        </mxCell>
        <mxCell id="FN0oJkP01dZrmvueaAVd-227" value="" style="shape=flexArrow;endArrow=classic;html=1;endWidth=15.428571428571429;endSize=5;startWidth=15.428571428571429;startSize=5;width=4;fontSize=18;fontStyle=0" parent="1" edge="1">
          <mxGeometry width="50" height="50" relative="1" as="geometry">
            <mxPoint x="738.9999999999998" y="853.0000000000001" as="sourcePoint" />
            <mxPoint x="773" y="853.5" as="targetPoint" />
          </mxGeometry>
        </mxCell>
        <mxCell id="FN0oJkP01dZrmvueaAVd-228" value="&lt;font color=&quot;#7f00ff&quot; face=&quot;Times New Roman&quot; style=&quot;font-size: 18px;&quot;&gt;&lt;span style=&quot;font-size: 18px;&quot;&gt;output&lt;br style=&quot;font-size: 18px;&quot;&gt;target type&lt;/span&gt;&lt;/font&gt;&lt;br style=&quot;font-size: 18px;&quot;&gt;" style="text;html=1;strokeColor=none;fillColor=none;align=center;verticalAlign=middle;whiteSpace=wrap;rounded=0;fontSize=18;fontStyle=0" parent="1" vertex="1">
          <mxGeometry x="777" y="820" width="70" height="69" as="geometry" />
        </mxCell>
        <mxCell id="FN0oJkP01dZrmvueaAVd-229" value="&lt;font color=&quot;#7f00ff&quot; style=&quot;font-size: 18px&quot;&gt;&lt;span style=&quot;font-size: 18px&quot;&gt;maxpool&lt;br&gt;2*2&lt;br style=&quot;font-size: 18px&quot;&gt;&lt;/span&gt;&lt;/font&gt;" style="text;html=1;strokeColor=none;fillColor=none;align=center;verticalAlign=middle;whiteSpace=wrap;rounded=0;fontFamily=Times New Roman;fontSize=18;fontStyle=0" parent="1" vertex="1">
          <mxGeometry x="414" y="942" width="58" height="20" as="geometry" />
        </mxCell>
        <mxCell id="FN0oJkP01dZrmvueaAVd-230" value="&lt;font color=&quot;#7f00ff&quot; style=&quot;font-size: 18px&quot;&gt;&lt;span style=&quot;font-size: 18px&quot;&gt;maxpool&lt;br&gt;2*2&lt;br style=&quot;font-size: 18px&quot;&gt;&lt;/span&gt;&lt;/font&gt;" style="text;html=1;strokeColor=none;fillColor=none;align=center;verticalAlign=middle;whiteSpace=wrap;rounded=0;fontFamily=Times New Roman;fontSize=18;fontStyle=0" parent="1" vertex="1">
          <mxGeometry x="569" y="942" width="58" height="20" as="geometry" />
        </mxCell>
        <mxCell id="FN0oJkP01dZrmvueaAVd-234" value="&lt;font color=&quot;#7f00ff&quot; style=&quot;font-size: 18px&quot;&gt;&lt;span style=&quot;font-size: 18px&quot;&gt;size=32*32&lt;br&gt;maxpool&lt;br&gt;2*2&lt;br style=&quot;font-size: 18px&quot;&gt;&lt;/span&gt;&lt;/font&gt;" style="text;html=1;strokeColor=none;fillColor=none;align=center;verticalAlign=middle;whiteSpace=wrap;rounded=0;fontFamily=Times New Roman;fontSize=18;fontStyle=0" parent="1" vertex="1">
          <mxGeometry x="377" y="440" width="74" height="50" as="geometry" />
        </mxCell>
        <mxCell id="FN0oJkP01dZrmvueaAVd-235" value="&lt;font color=&quot;#7f00ff&quot; style=&quot;font-size: 18px&quot;&gt;&lt;span style=&quot;font-size: 18px&quot;&gt;size=16*16&lt;br&gt;maxpool&lt;br&gt;2*2&lt;br style=&quot;font-size: 18px&quot;&gt;&lt;/span&gt;&lt;/font&gt;" style="text;html=1;strokeColor=none;fillColor=none;align=center;verticalAlign=middle;whiteSpace=wrap;rounded=0;fontFamily=Times New Roman;fontSize=18;fontStyle=0" parent="1" vertex="1">
          <mxGeometry x="531.5" y="440" width="74" height="50" as="geometry" />
        </mxCell>
      </root>
    </mxGraphModel>
  </diagram>
</mxfile>
